<svg width="1920" height="1076" viewBox="0 0 1920 1076" fill="none" xmlns="http://www.w3.org/2000/svg">
<g clip-path="url(#clip0_214_947)">
<g filter="url(#filter0_f_214_947)">
<path d="M-1723 1926H1919.67V-122H-1723V1926Z" fill="url(#paint0_linear_214_947)"/>
<mask id="mask0_214_947" style="mask-type:luminance" maskUnits="userSpaceOnUse" x="-1723" y="-122" width="3643" height="2048">
<path d="M-1723 1926H1919.67V-122H-1723V1926Z" fill="white"/>
</mask>
<g mask="url(#mask0_214_947)">
<mask id="mask1_214_947" style="mask-type:luminance" maskUnits="userSpaceOnUse" x="-1426" y="833" width="3029" height="2120">
<path d="M-1425.29 833.84H1602.35V2952.57H-1425.29V833.84Z" fill="white"/>
</mask>
<g mask="url(#mask1_214_947)">
<g opacity="0.5">
<mask id="mask2_214_947" style="mask-type:luminance" maskUnits="userSpaceOnUse" x="-1426" y="833" width="3029" height="2120">
<path d="M1353.1 2952.57C1413.96 2748.52 1474.82 2544.47 1535.68 2340.42C1557.9 2265.91 1580.13 2191.39 1602.35 2116.87C1474.28 2196.23 1337.04 2260.75 1194 2308.1C1048.19 2356.37 853.682 2370.38 774.397 2238.84C738.842 2179.85 738.377 2106.81 741.296 2038C745.904 1929.36 756.329 1820.97 772.516 1713.45C788.297 1608.61 809.618 1502.86 798.421 1397.43C774.901 1175.97 592.657 980.949 373.292 942.5C119.621 898.036 -139.381 1044.88 -392.503 997.387C-581.192 961.981 -748.68 821.01 -940.167 834.784C-968.859 836.848 -996.907 842.496 -1024.01 851.185C-1118.21 881.385 -1200.99 948.323 -1259.69 1029.25C-1260.6 1030.5 -1261.51 1031.76 -1262.41 1033.03C-1336.25 1136.48 -1375.97 1260.53 -1403.76 1384.64C-1434.17 1520.44 -1445.19 1680.79 -1348.35 1780.72C-1342.43 1786.84 -1336.23 1792.56 -1329.8 1797.91C-1240.64 1871.96 -1105.18 1873.26 -992.724 1837.54C-872.148 1799.23 -765.541 1726.39 -647.961 1679.69C-360.861 1565.66 13.5131 1643.78 172.53 1908.62C223.245 1993.09 249.749 2089.5 275.68 2184.54L409.176 2673.84C419.106 2710.24 429.637 2747.82 453.56 2777C509.778 2845.56 617.205 2842.12 699.933 2810.23C782.662 2778.34 857.778 2724.42 945.138 2709.28C1059.01 2689.54 1177.07 2741.35 1258.53 2823.33C1296.44 2861.47 1327.38 2905.39 1353.1 2952.57Z" fill="white"/>
</mask>
<g mask="url(#mask2_214_947)">
<path d="M65.9649 1233.65C-144.115 1170.77 -380 1220.55 -594.958 1250.21C-570.113 1207.34 -540.668 1166.53 -504.403 1129.83C-286.576 1113.83 -56.9103 1045.24 158.047 1099.71C122.622 1141.69 92.5033 1186.87 65.9649 1233.65Z" fill="#7ACC52"/>
<path d="M460.146 1289.1C383.339 1195.59 277.943 1126.44 161.024 1096.76C177.177 1080.85 194.268 1065.49 212.171 1050.9C329.206 1079.94 435.556 1150.42 512 1244.11C493.994 1258.52 476.674 1273.58 460.146 1289.1Z" fill="#89D04C"/>
<path d="M512 1244.11C435.556 1150.42 329.206 1079.94 212.171 1050.9C230.074 1036.3 248.79 1022.47 268.198 1009.63C385.487 1037.27 492.335 1108.91 567.982 1203C548.704 1215.93 530.008 1229.7 512 1244.11Z" fill="#91D249"/>
<path d="M567.982 1203C492.335 1108.91 385.487 1037.27 268.198 1009.63C277.901 1003.2 287.776 997.029 297.81 991.127C415.236 1018.02 522.103 1089.95 597.326 1184.25C587.407 1190.28 577.622 1196.53 567.982 1203Z" fill="#A6D841"/>
<path d="M597.326 1184.25C522.103 1089.95 415.236 1018.02 297.81 991.127C307.843 985.226 318.033 979.598 328.365 974.272C445.909 1000.51 552.615 1072.41 627.465 1166.89C617.295 1172.43 607.244 1178.22 597.326 1184.25Z" fill="#B6DC3B"/>
<path d="M627.465 1166.89C552.615 1072.41 445.909 1000.51 328.365 974.272C338.695 968.947 349.169 963.922 359.768 959.228C477.397 985.008 583.737 1056.45 658.326 1151.07C647.927 1156.07 637.637 1161.35 627.465 1166.89Z" fill="#CAE134"/>
<path d="M658.326 1151.07C583.738 1056.45 477.398 985.008 359.769 959.228C370.369 954.534 381.095 950.168 391.931 946.16C509.592 971.766 615.338 1042.25 689.826 1136.91C679.227 1141.33 668.723 1146.06 658.326 1151.07Z" fill="#E1E72B"/>
<path d="M161.024 1096.76C154.917 1095.21 148.797 1093.76 142.666 1092.41C158.771 1076.54 175.821 1061.21 193.69 1046.66C199.839 1047.97 206.052 1049.38 212.171 1050.9C194.268 1065.49 177.177 1080.85 161.024 1096.76Z" fill="#74CB54"/>
<path d="M212.171 1050.9C206.052 1049.38 199.839 1047.97 193.69 1046.66C211.559 1032.1 230.248 1018.32 249.633 1005.53C255.821 1006.75 262.053 1008.18 268.198 1009.63C248.79 1022.47 230.074 1036.3 212.171 1050.9Z" fill="#7CCD51"/>
<path d="M268.198 1009.63C262.053 1008.18 255.821 1006.75 249.633 1005.53C259.324 999.134 269.192 992.987 279.216 987.117C285.423 988.293 291.653 989.719 297.81 991.127C287.776 997.029 277.901 1003.2 268.198 1009.63Z" fill="#94D348"/>
<path d="M297.81 991.127C291.653 989.719 285.423 988.293 279.216 987.117C289.24 981.248 299.423 975.654 309.749 970.364C315.975 971.499 322.196 972.896 328.365 974.272C318.033 979.598 307.843 985.226 297.81 991.127Z" fill="#A7D841"/>
<path d="M328.365 974.272C322.195 972.896 315.975 971.499 309.749 970.364C320.074 965.074 330.543 960.089 341.14 955.435C347.378 956.541 353.591 957.874 359.768 959.228C349.17 963.922 338.695 968.947 328.365 974.272Z" fill="#BEDE38"/>
<path d="M359.769 959.228C353.591 957.874 347.378 956.541 341.14 955.435C351.736 950.783 362.459 946.461 373.293 942.5C379.538 943.594 385.75 944.815 391.931 946.16C381.095 950.168 370.369 954.534 359.769 959.228Z" fill="#DAE52E"/>
<path d="M139.698 1095.37C140.684 1094.38 141.673 1093.4 142.666 1092.41C-67.1295 1046.2 -289.959 1111.88 -501.733 1127.15C-502.627 1128.04 -503.517 1128.94 -504.403 1129.83C-292.762 1114.28 -69.9459 1049.09 139.698 1095.37Z" fill="#73CA54"/>
<path d="M142.666 1092.41C-67.1296 1046.2 -289.959 1111.88 -501.734 1127.15C-494.512 1119.99 -486.989 1113 -479.186 1106.22C-267.175 1091.56 -42.5657 1023.19 167.516 1069.04C159.007 1076.68 150.719 1084.48 142.666 1092.41Z" fill="#73CA54"/>
<path d="M167.516 1069.04C-42.5657 1023.19 -267.175 1091.56 -479.186 1106.22C-471.383 1099.44 -463.298 1092.87 -454.952 1086.55C-242.319 1073.51 -17.1478 1001.74 193.69 1046.66C184.755 1053.94 176.025 1061.41 167.516 1069.04Z" fill="#75CB54"/>
<path d="M193.69 1046.66C-17.1478 1001.74 -242.319 1073.51 -454.952 1086.55C-446.606 1080.23 -437.999 1074.15 -429.15 1068.36C-215.639 1057.59 9.1868 981.839 221.093 1025.43C211.764 1032.3 202.624 1039.38 193.69 1046.66Z" fill="#7BCC51"/>
<path d="M221.093 1025.43C9.1868 981.839 -215.639 1057.59 -429.15 1068.36C-420.302 1062.56 -411.211 1057.05 -401.9 1051.85C-187.38 1043.7 36.5013 963.453 249.633 1005.53C239.94 1011.92 230.422 1018.57 221.093 1025.43Z" fill="#85CF4E"/>
<path d="M249.633 1005.53C36.5013 963.453 -187.38 1043.7 -401.9 1051.85C-392.588 1046.65 -383.054 1041.77 -373.319 1037.24C-157.792 1031.7 64.8594 946.56 279.216 987.117C269.192 992.987 259.324 999.134 249.633 1005.53Z" fill="#93D348"/>
<path d="M279.216 987.117C64.8595 946.56 -157.792 1031.7 -373.319 1037.24C-363.584 1032.72 -353.647 1028.54 -343.528 1024.75C-127.121 1021.49 94.3242 931.129 309.749 970.364C299.423 975.654 289.24 981.248 279.216 987.117Z" fill="#A6D741"/>
<path d="M309.749 970.364C94.3241 931.129 -127.121 1021.49 -343.528 1024.75C-333.409 1020.96 -323.107 1017.56 -312.643 1014.59C-95.6153 1012.94 124.96 917.138 341.14 955.435C330.543 960.089 320.074 965.075 309.749 970.364Z" fill="#BDDE39"/>
<path d="M341.14 955.435C124.96 917.138 -95.6153 1012.94 -312.643 1014.59C-302.18 1011.61 -291.554 1009.05 -280.785 1006.96C-63.5215 1005.92 156.827 904.558 373.293 942.5C362.459 946.461 351.736 950.783 341.14 955.435Z" fill="#DAE52E"/>
</g>
</g>
</g>
<mask id="mask3_214_947" style="mask-type:luminance" maskUnits="userSpaceOnUse" x="632" y="-1710" width="1884" height="3223">
<path d="M632.613 -1709.44H2515.11V1512.07H632.613V-1709.44Z" fill="white"/>
</mask>
<g mask="url(#mask3_214_947)">
<g opacity="0.5">
<mask id="mask4_214_947" style="mask-type:luminance" maskUnits="userSpaceOnUse" x="632" y="-1710" width="1884" height="3223">
<path d="M1486.35 -1709.43C1297.12 -1611.81 1107.88 -1514.19 918.642 -1416.57C849.538 -1380.92 780.433 -1345.27 711.328 -1309.62C857.308 -1272.36 998.961 -1218.19 1132.26 -1147.95C1268.14 -1076.35 1413.09 -945.895 1373.27 -797.556C1355.42 -731.033 1303.11 -680.061 1251.5 -634.452C1170.02 -562.449 1084.69 -494.811 995.984 -431.924C909.496 -370.608 818.505 -312.647 750.3 -231.483C607.02 -60.9813 592.845 205.56 717.234 390.295C861.077 603.92 1146.47 688.743 1287.75 904.073C1393.06 1064.59 1407.61 1283.03 1550.3 1411.46C1571.68 1430.71 1595.2 1447 1620.25 1460.51C1707.32 1507.45 1812.96 1520.69 1911.97 1506.88C1913.51 1506.67 1915.04 1506.45 1916.58 1506.22C2042.33 1487.7 2159.25 1430.31 2267.96 1364.28C2386.9 1292.04 2510.09 1188.81 2514.96 1049.74C2515.26 1041.23 2515.09 1032.79 2514.48 1024.45C2506.02 908.86 2413.04 810.345 2309.33 754.077C2198.12 693.749 2071.71 667.436 1956.54 615.085C1675.31 487.26 1472.03 163.32 1552.62 -134.896C1578.33 -230.003 1629.42 -315.948 1679.93 -400.533C1766.61 -545.683 1853.28 -690.832 1939.96 -835.98C1959.3 -868.376 1979.09 -902.024 1983.53 -939.493C1993.95 -1027.54 1916.99 -1102.57 1836.65 -1140.07C1756.31 -1177.57 1665.38 -1194.32 1593.89 -1246.77C1500.72 -1315.15 1456.2 -1436.14 1458.79 -1551.68C1459.99 -1605.44 1470.19 -1658.19 1486.35 -1709.43Z" fill="white"/>
</mask>
<g mask="url(#mask4_214_947)">
<path d="M1526.62 -303.335C1480.58 -224.392 1442.06 -139.615 1420.72 -50.504C1367.62 -23.7729 1307.01 -1.43689 1246.97 16.8222C1263.35 -74.6401 1300.49 -160.912 1346.42 -240.624C1408.32 -257.925 1470.7 -278.737 1526.62 -303.335Z" fill="#CDE233"/>
<path d="M1346.42 -240.624C1300.49 -160.912 1263.35 -74.6401 1246.97 16.8222C1193.18 33.5383 1138.31 49.1192 1082.32 61.5756C1096.02 -30.3196 1130.4 -119.18 1177.86 -197.939C1235 -210.048 1291.17 -224.846 1346.42 -240.624Z" fill="#AFDA3E"/>
<path d="M1177.86 -197.939C1130.4 -119.181 1096.02 -30.3197 1082.32 61.5755C1026.34 74.0319 969.227 83.3638 910.957 87.5838C921.964 -4.74498 954.504 -93.5913 1003.51 -171.398C1062.61 -176.413 1120.72 -185.831 1177.86 -197.939Z" fill="#9FD644"/>
<path d="M1420.72 -50.504C1418.9 -42.8902 1417.5 -35.0763 1415.98 -27.3764C1363.28 -0.473492 1302.98 21.9823 1243.26 40.3117C1244.34 32.4504 1245.57 24.6197 1246.97 16.8221C1307.01 -1.43692 1367.62 -23.773 1420.72 -50.504Z" fill="#C3DF37"/>
<path d="M1246.97 16.8221C1245.57 24.6197 1244.34 32.4504 1243.26 40.3117C1189.73 57.0988 1135.12 72.737 1079.37 85.2136C1080.21 77.3502 1081.17 69.3952 1082.32 61.5756C1138.31 49.1192 1193.18 33.5383 1246.97 16.8221Z" fill="#A0D644"/>
<path d="M1082.32 61.5756C1081.17 69.3952 1080.21 77.3502 1079.37 85.2136C1023.62 97.6908 966.735 107.006 908.676 111.148C909.278 103.282 910.038 95.4251 910.957 87.5839C969.227 83.3639 1026.34 74.032 1082.32 61.5756Z" fill="#8FD14A"/>
<path d="M1552.62 -134.901C1549.71 -130.564 1546.56 -126.178 1543.17 -121.751C1517.22 -20.963 1523.26 82.694 1553.72 180.53C1555.97 175.524 1557.93 170.567 1559.62 165.666C1530.5 68.17 1525.57 -34.8145 1552.62 -134.901Z" fill="#FCEE21"/>
<path d="M1543.17 -121.751C1517.22 -20.9631 1523.26 82.6939 1553.72 180.53C1544 200.909 1529.68 219.895 1511.95 237.534C1479.05 139.353 1464.16 31.0032 1488.33 -71.1076C1509.87 -86.8231 1528.48 -103.691 1543.17 -121.751Z" fill="#F5EC24"/>
<path d="M1488.33 -71.1075C1464.16 31.0033 1479.05 139.353 1511.95 237.534C1494.22 255.174 1473.08 271.467 1449.73 286.462C1411.46 187.523 1395.73 77.6425 1415.98 -27.3764C1442.34 -40.8283 1466.79 -55.3914 1488.33 -71.1075Z" fill="#D9E52E"/>
<path d="M1415.98 -27.3765C1395.73 77.6425 1411.46 187.523 1449.73 286.462C1426.37 301.456 1400.8 315.151 1374.2 327.594C1330.56 227.898 1315.91 117.61 1332.26 9.68278C1361.38 -1.58549 1389.63 -13.9253 1415.98 -27.3765Z" fill="#C2DF37"/>
<path d="M1332.26 9.68286C1315.91 117.61 1330.56 227.898 1374.2 327.594C1347.61 340.038 1319.98 351.229 1292.53 361.215C1246.44 261.174 1228.7 149.562 1243.26 40.3118C1273.12 31.1471 1303.13 20.9505 1332.26 9.68286Z" fill="#AEDA3E"/>
<path d="M1243.26 40.3118C1228.7 149.562 1246.44 261.174 1292.53 361.215C1243.02 379.565 1192.23 396.571 1140.12 409.884C1089.21 310.872 1067.78 196.175 1079.37 85.2136C1135.12 72.7371 1189.73 57.0988 1243.26 40.3118Z" fill="#9FD644"/>
<path d="M1079.37 85.2136C1067.78 196.175 1089.21 310.872 1140.12 409.884C1088.01 423.197 1034.57 432.817 979.761 436.393C924.024 338.41 900.06 223.819 908.676 111.148C966.735 107.006 1023.62 97.6908 1079.37 85.2136Z" fill="#8ED14B"/>
<path d="M1559.62 165.666C1557.93 170.567 1555.97 175.524 1553.72 180.53C1613.97 374.084 1769.06 544.561 1956.15 631.985C1956.57 626.247 1956.61 620.574 1956.29 614.971C1769.56 530.008 1617.23 358.582 1559.62 165.666Z" fill="#FCEE21"/>
<path d="M1553.72 180.53C1613.97 374.084 1769.06 544.561 1956.15 631.985C1954.42 655.156 1946.78 676.537 1934.75 696.188C1749.04 603.238 1576.99 431.672 1511.95 237.534C1529.68 219.895 1544 200.909 1553.72 180.53Z" fill="#F3EC24"/>
<path d="M1511.95 237.534C1576.99 431.672 1749.04 603.238 1934.75 696.188C1922.73 715.839 1906.33 733.761 1887.07 750.013C1704.39 644.905 1525.31 481.884 1449.73 286.462C1473.08 271.467 1494.22 255.174 1511.95 237.534Z" fill="#D1E331"/>
<path d="M1449.73 286.462C1525.31 481.884 1704.39 644.905 1887.07 750.013C1867.82 766.264 1845.72 780.847 1822.3 793.82C1642.65 676.556 1460.33 524.301 1374.2 327.594C1400.8 315.151 1426.37 301.456 1449.73 286.462Z" fill="#B5DC3C"/>
<path d="M1374.2 327.594C1460.33 524.301 1642.65 676.556 1822.3 793.82C1798.88 806.794 1774.14 818.158 1749.61 827.975C1571.34 705.184 1383.44 558.506 1292.53 361.215C1319.98 351.229 1347.61 340.038 1374.2 327.594Z" fill="#9FD644"/>
<path d="M1292.53 361.215C1383.44 558.506 1571.34 705.184 1749.61 827.975C1727.23 837.122 1704.43 845.839 1681.21 853.745C1505.4 727.349 1311.16 584.007 1217.3 387.438C1242.7 379.229 1267.77 370.39 1292.53 361.215Z" fill="#8DD14B"/>
<path d="M1217.3 387.438C1311.16 584.007 1505.4 727.349 1681.21 853.746C1658 861.653 1634.36 868.751 1610.3 874.664C1439.89 740.332 1240.47 604.864 1140.12 409.884C1166.18 403.227 1191.9 395.648 1217.3 387.438Z" fill="#82CE4F"/>
<path d="M1140.12 409.884C1240.47 604.864 1439.89 740.332 1610.3 874.664C1562.18 886.487 1512.36 893.565 1460.77 892.875C1298.21 747.002 1089.55 629.061 979.761 436.393C1034.57 432.817 1088.01 423.197 1140.12 409.884Z" fill="#7ACC52"/>
<path d="M1934.75 696.188C1934.83 696.229 1934.92 696.275 1935 696.315C1922.97 715.971 1906.57 733.896 1887.32 750.153C1887.24 750.106 1887.15 750.059 1887.07 750.013C1906.33 733.761 1922.73 715.839 1934.75 696.188Z" fill="#C4DF36"/>
<path d="M1887.07 750.012C1887.16 750.059 1887.24 750.106 1887.32 750.152C1868.06 766.408 1845.96 780.995 1822.54 793.972C1822.46 793.921 1822.38 793.872 1822.3 793.82C1845.72 780.847 1867.82 766.264 1887.07 750.012Z" fill="#A0D644"/>
<path d="M1822.3 793.82C1822.38 793.872 1822.46 793.921 1822.54 793.972C1799.12 806.949 1774.38 818.318 1749.85 828.137C1749.77 828.083 1749.69 828.029 1749.61 827.975C1774.14 818.158 1798.88 806.794 1822.3 793.82Z" fill="#83CE4F"/>
<path d="M1749.61 827.975C1749.69 828.029 1749.77 828.083 1749.85 828.137C1727.46 837.288 1704.66 846.007 1681.44 853.917C1681.37 853.862 1681.29 853.801 1681.21 853.745C1704.43 845.839 1727.23 837.122 1749.61 827.975Z" fill="#6DC957"/>
<path d="M1681.21 853.746C1681.29 853.802 1681.37 853.862 1681.44 853.917C1658.23 861.828 1634.59 868.929 1610.53 874.844C1610.45 874.784 1610.38 874.723 1610.3 874.664C1634.36 868.751 1658 861.653 1681.21 853.746Z" fill="#5FC55C"/>
<path d="M1610.3 874.664C1610.38 874.723 1610.45 874.784 1610.53 874.844C1562.41 886.673 1512.58 893.756 1460.99 893.07C1460.92 893.005 1460.85 892.94 1460.77 892.875C1512.36 893.565 1562.18 886.487 1610.3 874.664Z" fill="#55C260"/>
<path d="M1935 696.315C1967.97 712.748 2001.89 729.956 2035.57 744.117C2022.96 765.729 2005.81 785.546 1985.71 803.632C1953.53 786.454 1919.64 768.6 1887.32 750.152C1906.57 733.896 1922.97 715.971 1935 696.315Z" fill="#C4DF36"/>
<path d="M1887.32 750.152C1919.64 768.6 1953.53 786.454 1985.71 803.632C1965.6 821.719 1942.55 838.074 1918.12 852.761C1887.45 832.566 1854.2 814.435 1822.54 793.972C1845.96 780.995 1868.06 766.408 1887.32 750.152Z" fill="#A0D644"/>
<path d="M1822.54 793.972C1854.2 814.435 1887.45 832.567 1918.12 852.761C1893.69 867.448 1867.9 880.467 1842.33 891.88C1812.34 870.314 1781.21 849.516 1749.85 828.138C1774.38 818.318 1799.12 806.949 1822.54 793.972Z" fill="#83CE4F"/>
<path d="M1749.85 828.137C1781.21 849.516 1812.34 870.314 1842.33 891.88C1818.99 902.447 1795.23 912.565 1771.03 921.847C1741.85 899.285 1712.34 875.894 1681.45 853.917C1704.66 846.007 1727.46 837.288 1749.85 828.137Z" fill="#6DC957"/>
<path d="M1681.44 853.917C1712.34 875.894 1741.85 899.285 1771.03 921.847C1746.84 931.127 1722.2 939.568 1697.13 946.78C1669.73 922.026 1640.4 898.135 1610.53 874.844C1634.59 868.929 1658.23 861.828 1681.44 853.917Z" fill="#5FC55C"/>
<path d="M1610.53 874.844C1640.4 898.135 1669.73 922.026 1697.13 946.78C1646.99 961.202 1595.08 970.703 1541.34 972.15C1516.52 944.21 1489.36 918.273 1460.99 893.07C1512.58 893.756 1562.41 886.673 1610.53 874.844Z" fill="#55C260"/>
<path d="M1985.71 803.632C2064.39 845.781 2143.21 889.055 2213.66 943.14C2189.7 967.171 2162.54 989.321 2133.89 1009.66C2068.56 948.292 1993.26 902.424 1918.12 852.761C1942.55 838.074 1965.6 821.719 1985.71 803.632Z" fill="#9DD545"/>
<path d="M1918.12 852.761C1993.26 902.424 2068.56 948.292 2133.89 1009.66C2105.24 1030 2075.1 1048.52 2045.2 1065.3C1982.21 1000.62 1915.85 944.959 1842.33 891.88C1867.9 880.467 1893.69 867.448 1918.12 852.761Z" fill="#7FCD50"/>
<path d="M1842.33 891.88C1915.85 944.958 1982.21 1000.62 2045.2 1065.3C2017.99 1080.62 1990.33 1095.45 1962.19 1109.37C1901.75 1042.29 1842.64 977.417 1771.03 921.847C1795.23 912.565 1818.99 902.447 1842.33 891.88Z" fill="#68C759"/>
<path d="M1771.03 921.847C1842.64 977.417 1901.75 1042.29 1962.19 1109.37C1934.05 1123.29 1905.43 1136.29 1876.34 1147.96C1821.51 1075.61 1764.53 1007.83 1697.13 946.78C1722.2 939.568 1746.84 931.127 1771.03 921.847Z" fill="#59C35E"/>
<path d="M1697.13 946.78C1764.53 1007.83 1821.51 1075.61 1876.34 1147.96C1847.25 1159.63 1817.68 1169.97 1787.62 1178.54C1738.39 1100.91 1683.76 1030.87 1620.58 964.331C1646.55 959.972 1672.06 953.991 1697.13 946.78Z" fill="#4FC162"/>
<path d="M1620.58 964.331C1683.76 1030.87 1738.39 1100.91 1787.62 1178.54C1757.56 1187.11 1727.01 1193.92 1695.97 1198.54C1649.29 1118.51 1602.6 1041.18 1541.34 972.15C1568.21 971.427 1594.62 968.69 1620.58 964.331Z" fill="#49BF64"/>
<path d="M1009.63 -180.933C1008.31 -180.982 1006.99 -181.033 1005.67 -181.086C953.108 -101.107 918.261 -8.74545 906.772 87.3887C908.168 87.4567 909.564 87.522 910.957 87.584C922.416 -8.53841 957.215 -100.887 1009.63 -180.933Z" fill="#9AD446"/>
<path d="M1005.67 -181.086C953.108 -101.108 918.261 -8.74564 906.772 87.3885C884.131 86.2394 861.27 84.2003 838.399 81.2173C850.144 -14.6805 886.878 -107.207 940.844 -186.136C962.52 -183.66 984.186 -181.993 1005.67 -181.086Z" fill="#9AD446"/>
<path d="M940.844 -186.136C886.878 -107.206 850.144 -14.6805 838.399 81.2173C815.528 78.2342 792.646 74.3073 769.96 69.3809C782.274 -25.9974 818.903 -119.411 875.967 -196.033C897.483 -191.895 919.168 -188.611 940.844 -186.136Z" fill="#A1D643"/>
<path d="M875.967 -196.033C818.903 -119.411 782.274 -25.9973 769.96 69.381C747.274 64.4545 724.786 58.5293 702.698 51.5508C715.58 -43.308 751.935 -136.742 812.096 -211.057C833.101 -205.163 854.45 -200.171 875.967 -196.033Z" fill="#B5DB3C"/>
<path d="M812.095 -211.057C751.935 -136.742 715.58 -43.308 702.698 51.5508C680.612 44.5723 658.93 36.5404 637.859 27.4004C650.998 -67.222 688.727 -158.222 750.296 -231.488C770.433 -223.745 791.092 -216.951 812.095 -211.057Z" fill="#D3E330"/>
<path d="M910.957 87.5839C909.564 87.5212 908.168 87.4572 906.772 87.3885C892.641 207.573 915.888 331.466 975.565 436.298C976.964 436.333 978.362 436.365 979.761 436.393C920.132 331.569 896.869 207.738 910.957 87.5839Z" fill="#89D04C"/>
<path d="M906.772 87.3885C892.641 207.573 915.888 331.466 975.565 436.298C952.904 435.685 929.987 434.019 907.056 431.238C846.84 326.764 823.887 201.266 838.399 81.2173C861.27 84.2004 884.131 86.2394 906.772 87.3885Z" fill="#89D04C"/>
<path d="M838.399 81.2173C823.887 201.266 846.84 326.764 907.056 431.238C884.125 428.456 861.183 424.559 838.471 419.48C777.068 315.794 754.61 189.128 769.96 69.3809C792.646 74.3073 815.528 78.2342 838.399 81.2173Z" fill="#91D249"/>
<path d="M769.96 69.3809C754.61 189.128 777.068 315.794 838.471 419.48C827.115 416.941 815.818 414.106 804.609 410.968C742.573 307.703 720.308 180.823 736.105 61.2357C747.324 64.2051 758.618 66.918 769.96 69.3809Z" fill="#A6D841"/>
<path d="M736.105 61.2357C720.308 180.823 742.573 307.703 804.608 410.968C793.4 407.83 782.279 404.389 771.278 400.637C708.689 297.739 686.512 170.998 702.698 51.5507C713.743 55.0403 724.886 58.2663 736.105 61.2357Z" fill="#B6DC3B"/>
<path d="M702.698 51.5507C686.512 170.998 708.689 297.739 771.278 400.637C760.277 396.884 749.395 392.82 738.663 388.437C675.683 285.799 653.436 159.635 669.899 40.2865C680.714 44.3093 691.655 48.0617 702.698 51.5507Z" fill="#CAE134"/>
<path d="M669.899 40.2865C653.436 159.635 675.683 285.799 738.663 388.437C727.93 384.054 717.348 379.352 706.947 374.321C643.818 271.781 621.291 146.711 637.859 27.4003C648.394 31.9705 659.083 36.2637 669.899 40.2865Z" fill="#E1E72B"/>
<path d="M979.761 436.393C978.362 436.365 976.964 436.334 975.565 436.298C978.685 441.771 981.887 447.183 985.164 452.538C986.56 452.571 987.956 452.602 989.351 452.629C986.076 447.275 982.879 441.865 979.761 436.393Z" fill="#74CB54"/>
<path d="M975.566 436.298C978.685 441.772 981.887 447.184 985.164 452.538C962.559 451.939 939.694 450.279 916.816 447.495C913.497 442.155 910.207 436.697 907.056 431.238C929.987 434.019 952.904 435.685 975.566 436.298Z" fill="#74CB54"/>
<path d="M907.056 431.238C910.207 436.697 913.496 442.155 916.816 447.495C893.938 444.71 871.047 440.8 848.391 435.699C844.981 430.393 841.689 424.91 838.47 419.48C861.183 424.559 884.125 428.457 907.056 431.238Z" fill="#7CCD51"/>
<path d="M838.471 419.48C841.689 424.91 844.981 430.393 848.391 435.699C837.062 433.149 825.792 430.301 814.611 427.147C811.154 421.859 807.863 416.382 804.609 410.968C815.818 414.106 827.115 416.941 838.471 419.48Z" fill="#94D348"/>
<path d="M804.609 410.968C807.862 416.381 811.154 421.859 814.611 427.147C803.431 423.994 792.34 420.534 781.369 416.76C777.869 411.488 774.564 406.036 771.278 400.637C782.279 404.389 793.4 407.83 804.609 410.968Z" fill="#A7D841"/>
<path d="M771.278 400.637C774.564 406.037 777.869 411.488 781.369 416.761C770.398 412.988 759.546 408.901 748.847 404.491C745.318 399.229 741.971 393.828 738.663 388.437C749.395 392.82 760.277 396.884 771.278 400.637Z" fill="#BEDE38"/>
<path d="M738.663 388.437C741.97 393.828 745.318 399.229 748.847 404.491C738.146 400.082 727.598 395.351 717.231 390.29C713.69 385.032 710.262 379.708 706.947 374.321C717.348 379.352 727.93 384.054 738.663 388.437Z" fill="#DAE52E"/>
<path d="M989.351 452.63C987.956 452.603 986.56 452.572 985.164 452.539C1097.33 635.757 1299.15 750.793 1456.99 892.811C1458.25 892.837 1459.51 892.859 1460.77 892.875C1302.83 751.146 1101.36 635.783 989.351 452.63Z" fill="#73CA54"/>
<path d="M985.164 452.538C1097.33 635.757 1299.15 750.792 1456.99 892.811C1446.82 892.574 1436.57 891.998 1426.27 891.074C1268.71 748.462 1063.71 634.014 951.093 450.836C962.494 451.674 973.862 452.239 985.164 452.538Z" fill="#73CA54"/>
<path d="M951.093 450.836C1063.71 634.014 1268.71 748.462 1426.27 891.074C1415.98 890.151 1405.64 888.879 1395.3 887.248C1238.47 743.07 1030.63 630.568 916.816 447.495C928.254 448.887 939.691 449.998 951.093 450.836Z" fill="#75CB54"/>
<path d="M916.816 447.495C1030.63 630.568 1238.47 743.07 1395.3 887.248C1384.95 885.618 1374.61 883.628 1364.3 881.27C1208.5 734.878 998.032 625.391 882.52 442.465C893.935 444.428 905.377 446.102 916.816 447.495Z" fill="#7BCC51"/>
<path d="M882.52 442.465C998.032 625.391 1208.5 734.878 1364.3 881.27C1353.98 878.912 1343.71 876.185 1333.51 873.078C1178.9 724.148 965.844 618.455 848.391 435.699C859.719 438.25 871.106 440.502 882.52 442.465Z" fill="#85CF4E"/>
<path d="M848.391 435.699C965.844 618.455 1178.9 724.148 1333.51 873.078C1323.31 869.972 1313.18 866.486 1303.17 862.61C1149.74 711.142 934.008 609.733 814.611 427.147C825.792 430.301 837.062 433.149 848.391 435.699Z" fill="#93D348"/>
<path d="M814.611 427.147C934.008 609.733 1149.74 711.142 1303.17 862.61C1293.15 858.734 1283.25 854.47 1273.51 849.804C1121.11 696.122 902.46 599.199 781.369 416.76C792.34 420.534 803.431 423.994 814.611 427.147Z" fill="#A6D741"/>
<path d="M781.369 416.76C902.46 599.199 1121.11 696.122 1273.51 849.804C1263.76 845.138 1254.17 840.073 1244.77 834.597C1093.11 679.349 871.137 586.825 748.847 404.491C759.546 408.9 770.398 412.988 781.369 416.76Z" fill="#BDDE39"/>
<path d="M748.847 404.491C871.137 586.825 1093.11 679.349 1244.77 834.597C1235.37 829.121 1226.16 823.235 1217.18 816.927C1065.8 661.085 839.976 572.583 717.231 390.29C727.598 395.351 738.146 400.082 748.847 404.491Z" fill="#DAE52E"/>
<path d="M1460.77 892.874C1459.51 892.858 1458.25 892.837 1456.99 892.811C1485.39 918.109 1512.57 944.161 1537.4 972.24C1538.71 972.215 1540.03 972.185 1541.34 972.15C1516.45 944.137 1489.22 918.138 1460.77 892.874Z" fill="#4EC063"/>
<path d="M1456.99 892.811C1485.39 918.109 1512.57 944.162 1537.4 972.24C1526.8 972.419 1516.12 972.249 1505.4 971.716C1480.75 943.492 1454.57 916.434 1426.27 891.074C1436.57 891.998 1446.82 892.574 1456.99 892.811Z" fill="#4EC063"/>
<path d="M1426.27 891.074C1454.57 916.434 1480.75 943.492 1505.4 971.716C1494.67 971.184 1483.9 970.29 1473.13 969.025C1448.95 940.418 1423.32 912.766 1395.3 887.248C1405.64 888.879 1415.98 890.15 1426.27 891.074Z" fill="#50C162"/>
<path d="M1395.3 887.248C1423.32 912.766 1448.95 940.418 1473.13 969.025C1462.36 967.761 1451.58 966.123 1440.84 964.103C1417.33 934.953 1391.92 907.012 1364.3 881.27C1374.61 883.628 1384.95 885.618 1395.3 887.248Z" fill="#58C35F"/>
<path d="M1364.3 881.27C1391.92 907.012 1417.33 934.953 1440.84 964.103C1430.1 962.083 1419.39 959.681 1408.76 956.885C1386.01 927.115 1360.68 899.077 1333.51 873.078C1343.71 876.185 1353.98 878.912 1364.3 881.27Z" fill="#64C65A"/>
<path d="M1333.51 873.078C1360.68 899.078 1386.01 927.115 1408.76 956.886C1398.13 954.09 1387.58 950.9 1377.15 947.307C1355.16 916.915 1329.88 888.867 1303.17 862.61C1313.18 866.486 1323.31 869.972 1333.51 873.078Z" fill="#75CB54"/>
<path d="M1303.17 862.61C1329.88 888.867 1355.16 916.916 1377.15 947.307C1366.72 943.714 1356.4 939.716 1346.25 935.305C1324.93 904.37 1299.83 876.285 1273.51 849.804C1283.25 854.47 1293.15 858.735 1303.17 862.61Z" fill="#8DD14B"/>
<path d="M1273.51 849.804C1299.83 876.285 1324.93 904.37 1346.25 935.305C1336.09 930.892 1326.1 926.065 1316.3 920.813C1295.45 889.494 1270.81 861.236 1244.77 834.597C1254.17 840.073 1263.76 845.138 1273.51 849.804Z" fill="#ABD940"/>
<path d="M1244.77 834.597C1270.81 861.236 1295.45 889.494 1316.3 920.813C1306.5 915.56 1296.9 909.882 1287.55 903.767C1266.87 872.304 1243.12 843.627 1217.18 816.927C1226.16 823.235 1235.37 829.121 1244.77 834.597Z" fill="#D0E232"/>
<path d="M1541.34 972.15C1540.03 972.185 1538.71 972.215 1537.4 972.24C1537.48 972.331 1537.56 972.422 1537.64 972.512C1538.95 972.487 1540.27 972.457 1541.58 972.422C1541.5 972.331 1541.42 972.241 1541.34 972.15Z" fill="#47BF65"/>
<path d="M1537.4 972.24C1537.48 972.331 1537.56 972.422 1537.64 972.512C1527.04 972.693 1516.36 972.524 1505.63 971.992C1505.55 971.901 1505.48 971.807 1505.4 971.716C1516.12 972.249 1526.8 972.419 1537.4 972.24Z" fill="#47BF65"/>
<path d="M1505.4 971.716C1505.48 971.808 1505.55 971.901 1505.63 971.992C1494.91 971.462 1484.14 970.57 1473.36 969.306C1473.28 969.214 1473.21 969.117 1473.13 969.025C1483.9 970.291 1494.67 971.184 1505.4 971.716Z" fill="#4ABF64"/>
<path d="M1473.13 969.025C1473.21 969.117 1473.28 969.214 1473.36 969.306C1462.58 968.042 1451.8 966.406 1441.06 964.388C1440.98 964.294 1440.91 964.197 1440.84 964.103C1451.58 966.123 1462.36 967.761 1473.13 969.025Z" fill="#52C161"/>
<path d="M1440.84 964.103C1440.91 964.197 1440.98 964.295 1441.06 964.388C1430.32 962.37 1419.61 959.969 1408.98 957.175C1408.91 957.078 1408.83 956.981 1408.76 956.886C1419.39 959.681 1430.1 962.084 1440.84 964.103Z" fill="#5EC55C"/>
<path d="M1408.76 956.886C1408.84 956.981 1408.91 957.078 1408.98 957.175C1398.35 954.379 1387.8 951.191 1377.36 947.599C1377.29 947.503 1377.22 947.405 1377.15 947.307C1387.58 950.9 1398.13 954.09 1408.76 956.886Z" fill="#71CA55"/>
<path d="M1377.15 947.307C1377.22 947.405 1377.29 947.503 1377.36 947.599C1366.93 944.008 1356.61 940.011 1346.46 935.601C1346.39 935.502 1346.32 935.404 1346.25 935.305C1356.4 939.716 1366.72 943.714 1377.15 947.307Z" fill="#89D04C"/>
<path d="M1346.25 935.305C1346.32 935.404 1346.39 935.502 1346.46 935.601C1336.3 931.189 1326.3 926.364 1316.5 921.111C1316.43 921.011 1316.36 920.913 1316.3 920.813C1326.1 926.065 1336.09 930.892 1346.25 935.305Z" fill="#A8D840"/>
<path d="M1316.3 920.813C1316.36 920.913 1316.43 921.011 1316.5 921.111C1306.7 915.86 1297.1 910.182 1287.74 904.068C1287.68 903.968 1287.61 903.867 1287.55 903.767C1296.9 909.882 1306.5 915.56 1316.3 920.813Z" fill="#CEE232"/>
<path d="M1541.58 972.422C1540.27 972.457 1538.95 972.487 1537.64 972.512C1598.62 1041.62 1644.98 1119.08 1691.39 1199.15C1692.92 1198.95 1694.44 1198.75 1695.97 1198.54C1649.35 1118.61 1602.73 1041.38 1541.58 972.422Z" fill="#47BF65"/>
<path d="M1537.64 972.512C1598.62 1041.62 1644.98 1119.08 1691.39 1199.15C1679.08 1200.74 1666.67 1201.95 1654.21 1202.77C1608.39 1122.39 1566.16 1041.44 1505.63 971.992C1516.36 972.524 1527.04 972.693 1537.64 972.512Z" fill="#47BF65"/>
<path d="M1505.63 971.992C1566.16 1041.44 1608.39 1122.39 1654.21 1202.77C1641.75 1203.58 1629.25 1204.01 1616.74 1204.03C1572.45 1122.85 1532.69 1039.63 1473.36 969.306C1484.14 970.57 1494.91 971.462 1505.63 971.992Z" fill="#4ABF64"/>
<path d="M1473.36 969.306C1532.69 1039.63 1572.45 1122.85 1616.74 1204.03C1604.23 1204.05 1591.71 1203.67 1579.24 1202.87C1537.12 1120.55 1498.7 1035.95 1441.06 964.388C1451.8 966.406 1462.58 968.042 1473.36 969.306Z" fill="#52C161"/>
<path d="M1441.06 964.388C1498.7 1035.95 1537.12 1120.55 1579.24 1202.87C1566.76 1202.07 1554.33 1200.85 1541.97 1199.21C1502.35 1115.59 1464.68 1030.16 1408.98 957.175C1419.61 959.969 1430.32 962.37 1441.06 964.388Z" fill="#5EC55C"/>
<path d="M1408.98 957.175C1464.68 1030.16 1502.35 1115.59 1541.97 1199.21C1529.62 1197.57 1517.36 1195.5 1505.22 1192.99C1468.09 1108.06 1431.13 1022.01 1377.36 947.599C1387.8 951.192 1398.35 954.379 1408.98 957.175Z" fill="#71CA55"/>
<path d="M1377.36 947.599C1431.13 1022.01 1468.09 1108.06 1505.22 1192.99C1493.08 1190.48 1481.07 1187.53 1469.23 1184.14C1434.27 1098.07 1398.53 1011.25 1346.46 935.601C1356.61 940.011 1366.93 944.008 1377.36 947.599Z" fill="#89D04C"/>
<path d="M1346.46 935.6C1398.53 1011.25 1434.27 1098.07 1469.23 1184.14C1457.39 1180.74 1445.72 1176.89 1434.27 1172.58C1400.85 1085.7 1367.38 997.637 1316.5 921.111C1326.3 926.363 1336.3 931.189 1346.46 935.6Z" fill="#A8D840"/>
<path d="M1316.5 921.111C1367.38 997.637 1400.85 1085.7 1434.27 1172.58C1422.83 1168.26 1411.59 1163.49 1400.62 1158.24C1367.79 1071.06 1338.17 980.926 1287.74 904.068C1297.1 910.182 1306.7 915.86 1316.5 921.111Z" fill="#CEE232"/>
</g>
</g>
</g>
<mask id="mask5_214_947" style="mask-type:luminance" maskUnits="userSpaceOnUse" x="206" y="333" width="72" height="71">
<path d="M207 333.333H277.666V404H207V333.333Z" fill="white"/>
</mask>
<g mask="url(#mask5_214_947)">
<g opacity="0.5">
<path d="M242.333 334.667C223.585 334.667 208.333 349.919 208.333 368.667C208.333 387.415 223.585 402.667 242.333 402.667C261.081 402.667 276.333 387.415 276.333 368.667C276.333 349.919 261.081 334.667 242.333 334.667ZM242.333 404C222.85 404 207 388.149 207 368.667C207 349.184 222.85 333.333 242.333 333.333C261.816 333.333 277.666 349.184 277.666 368.667C277.666 388.149 261.816 404 242.333 404Z" fill="white"/>
</g>
</g>
</g>
</g>
<g filter="url(#filter1_b_214_947)">
<rect x="-24" y="-22" width="1965" height="1124" fill="url(#paint1_linear_214_947)" fill-opacity="0.65"/>
</g>
</g>
<defs>
<filter id="filter0_f_214_947" x="-1803" y="-202" width="3802.67" height="2208" filterUnits="userSpaceOnUse" color-interpolation-filters="sRGB">
<feFlood flood-opacity="0" result="BackgroundImageFix"/>
<feBlend mode="normal" in="SourceGraphic" in2="BackgroundImageFix" result="shape"/>
<feGaussianBlur stdDeviation="40" result="effect1_foregroundBlur_214_947"/>
</filter>
<filter id="filter1_b_214_947" x="-28" y="-26" width="1973" height="1132" filterUnits="userSpaceOnUse" color-interpolation-filters="sRGB">
<feFlood flood-opacity="0" result="BackgroundImageFix"/>
<feGaussianBlur in="BackgroundImageFix" stdDeviation="2"/>
<feComposite in2="SourceAlpha" operator="in" result="effect1_backgroundBlur_214_947"/>
<feBlend mode="normal" in="SourceGraphic" in2="effect1_backgroundBlur_214_947" result="shape"/>
</filter>
<linearGradient id="paint0_linear_214_947" x1="-1768.33" y1="902" x2="1965" y2="902" gradientUnits="userSpaceOnUse">
<stop stop-color="#FCEE21"/>
<stop offset="1" stop-color="#22B573"/>
</linearGradient>
<linearGradient id="paint1_linear_214_947" x1="958.5" y1="-22" x2="958.5" y2="1102" gradientUnits="userSpaceOnUse">
<stop stop-color="white"/>
<stop offset="1" stop-color="#C8D2B3"/>
</linearGradient>
<clipPath id="clip0_214_947">
<rect width="3642.67" height="2048" fill="white" transform="translate(-1723 -122)"/>
</clipPath>
</defs>
</svg>
