<?xml version="1.0" encoding="UTF-8"?>
<svg version="1.1" xmlns="http://www.w3.org/2000/svg" width="256" height="447">
<path d="M0 0 C4.10108803 0.82021761 5.93607383 1.31220441 9.32421875 3.30859375 C10.17145508 3.799646 11.01869141 4.29069824 11.89160156 4.79663086 C12.81424805 5.33811768 13.73689453 5.87960449 14.6875 6.4375 C26.34505974 13.16028218 38.1998434 19.46651201 50.1081543 25.73022461 C51.15636604 26.28172935 51.15636604 26.28172935 52.22575378 26.84437561 C53.58997509 27.5618298 54.95455985 28.27859338 56.3195343 28.99461365 C61.24549032 31.58404102 66.12123795 34.25631669 70.96972656 36.98852539 C72.9203108 38.14864051 72.9203108 38.14864051 75 38 C75.18245806 68.23455189 75.324055 98.46907564 75.40852264 128.70405368 C75.41852842 132.27267406 75.42888298 135.84129336 75.43945312 139.40991211 C75.44155161 140.12036687 75.44365009 140.83082164 75.44581217 141.56280533 C75.4806332 153.07001423 75.54371515 164.57690376 75.61722237 176.08392312 C75.69200631 187.88916689 75.7364641 199.69424327 75.75270796 211.4997142 C75.76270499 218.13165463 75.78775961 224.7630004 75.84584045 231.39472008 C75.90004046 237.6337233 75.91691276 243.87170176 75.90486145 250.11091805 C75.90706688 252.40354349 75.92304097 254.69620232 75.9536438 256.98862457 C75.99333841 260.11479325 75.98392727 263.23707208 75.96203613 266.36332703 C75.98533886 267.27480851 76.0086416 268.18629 76.03265047 269.12539214 C75.98454076 271.65949751 75.86708124 273.61649926 75 276 C72.5886646 278.27906766 69.99806997 279.62703716 67 281 C65.49808105 281.84473877 65.49808105 281.84473877 63.96582031 282.70654297 C62.53641113 283.46668701 62.53641113 283.46668701 61.078125 284.2421875 C59.98532227 284.82532715 58.89251953 285.4084668 57.76660156 286.00927734 C56.60612305 286.62496582 55.44564453 287.2406543 54.25 287.875 C53.00732927 288.53697617 51.76481955 289.19925467 50.52246094 289.86181641 C47.95046878 291.23322465 45.37779717 292.60334602 42.8046875 293.97265625 C38.08417929 296.48618916 33.37229073 299.01573374 28.66015625 301.54492188 C14.1765656 309.31761628 -0.3365608 317.03422997 -14.85661316 324.73854065 C-19.68358579 327.30011942 -24.50826506 329.86598277 -29.33203125 332.43359375 C-42.35991498 339.36652692 -55.38851776 346.29553188 -68.49560547 353.078125 C-72.41357142 355.10865094 -76.31366984 357.15383774 -80.15625 359.32421875 C-80.76509033 359.66565918 -81.37393066 360.00709961 -82.0012207 360.35888672 C-83.5317774 361.22443681 -85.05353408 362.10550219 -86.57421875 362.98828125 C-89.35524995 364.14816383 -90.21416962 363.84888531 -93 363 C-93.24721068 343.36412746 -93.46581947 323.72813626 -93.65021229 304.09157085 C-93.73649545 294.97433107 -93.8322001 285.85737065 -93.94995117 276.74047852 C-94.0525378 268.79585577 -94.13758337 260.85127394 -94.20140952 252.90624171 C-94.2358347 248.69780263 -94.27914723 244.48987189 -94.34345436 240.28177452 C-94.40367245 236.32313889 -94.44048168 232.36498403 -94.45913696 228.40594101 C-94.47015675 226.95096837 -94.48982006 225.49603232 -94.51865196 224.04130363 C-94.55666392 222.05894678 -94.56091197 220.07602731 -94.56330872 218.0933075 C-94.57529202 216.98254695 -94.58727533 215.8717864 -94.59962177 214.72736645 C-94 212 -94 212 -91.59177685 210.19144917 C-90.73649049 209.79827094 -89.88120413 209.40509272 -89 209 C-88.32952637 208.61835693 -87.65905273 208.23671387 -86.96826172 207.84350586 C-73.84522142 200.57789924 -60.56522171 193.6564362 -47.21060181 186.8296814 C-37.03794768 181.62736172 -26.93919778 176.32150946 -16.93505859 170.79980469 C-10.70212558 167.36238956 -4.41597224 164.08616386 2 161 C2 159.35 2 157.7 2 156 C1.15824219 155.58492187 0.31648438 155.16984375 -0.55078125 154.7421875 C-18.42815037 145.88387567 -36.09550202 136.60622141 -53.73535156 127.28588867 C-59.77933238 124.09914801 -65.86858056 121.01563461 -72 118 C-72.66 117.67 -73.32 117.34 -74 117 C-74 116.34 -74 115.68 -74 115 C-73.38616455 114.76998291 -72.7723291 114.53996582 -72.13989258 114.30297852 C-66.02462352 111.94430692 -60.38477064 109.16248624 -54.6875 105.9375 C-47.33467821 101.83648021 -39.91618599 97.90536995 -32.41015625 94.09375 C-31.57542282 93.66921036 -30.74068939 93.24467072 -29.88066101 92.80726624 C-26.49339175 91.08614715 -23.1053788 89.36677695 -19.70956421 87.66256714 C-17.30821148 86.45737679 -14.91167178 85.24303991 -12.515625 84.02734375 C-11.78638321 83.66527832 -11.05714142 83.30321289 -10.30580139 82.93017578 C-6.94666166 81.21721108 -5.13148913 80.1972337 -3 77 C-2.60986284 75.0103005 -2.26797351 73.00980131 -2 71 C-1.34 71 -0.68 71 0 71 C0 47.57 0 24.14 0 0 Z " fill="#016938" transform="translate(181,83)"/>
<path d="M0 0 C0 50.49 0 100.98 0 153 C-16 161 -16 161 -22.14453125 164.0546875 C-32.08761435 168.9983352 -42.00896552 173.97144828 -51.80737305 179.19726562 C-56.26214348 181.57212666 -60.7413324 183.88496168 -65.25390625 186.1484375 C-66.84126587 186.9528125 -66.84126587 186.9528125 -68.46069336 187.7734375 C-70.53539601 188.82351461 -72.61550941 189.86298369 -74.70141602 190.890625 C-75.63783936 191.36757812 -76.5742627 191.84453125 -77.5390625 192.3359375 C-78.37646973 192.75407715 -79.21387695 193.1722168 -80.07666016 193.60302734 C-82.17643195 194.85266122 -82.17643195 194.85266122 -82.77880859 197.16650391 C-82.85180176 197.77155762 -82.92479492 198.37661133 -83 199 C-82.34 199.33 -81.68 199.66 -81 200 C-79.515 200.99 -79.515 200.99 -78 202 C-76.18548992 203.01004397 -74.3611151 204.00242319 -72.53125 204.984375 C-71.41564697 205.58314453 -70.30004395 206.18191406 -69.15063477 206.79882812 C-67.93383728 207.44936985 -66.71695694 208.09975661 -65.5 208.75 C-64.88373749 209.07991943 -64.26747498 209.40983887 -63.63253784 209.74975586 C-53.24187108 215.31072676 -42.80251687 220.773007 -32.32421875 226.16699219 C-25.77388595 229.54221043 -19.26984841 232.98846366 -12.79272461 236.50195312 C-10.54498166 237.7076661 -8.28936017 238.87610106 -6 240 C-16.15493965 245.35593083 -26.31884467 250.6940501 -36.5 256 C-44.26362444 260.04611323 -52.02436038 264.09740811 -59.75952148 268.19775391 C-64.22510855 270.56024247 -68.71236667 272.87229381 -73.22265625 275.1484375 C-74.80240234 275.9528125 -74.80240234 275.9528125 -76.4140625 276.7734375 C-78.47560653 277.82211375 -80.5418805 278.86155523 -82.61328125 279.890625 C-83.5465625 280.36757813 -84.47984375 280.84453125 -85.44140625 281.3359375 C-86.68966187 281.96314697 -86.68966187 281.96314697 -87.96313477 282.60302734 C-90.2913777 284.19983977 -90.96910637 285.40882626 -92 288 C-92.66666667 289.33333333 -93.33333333 290.66666667 -94 292 C-94.33 292 -94.66 292 -95 292 C-95 310.15 -95 328.3 -95 347 C-105.11114518 343.62961827 -105.11114518 343.62961827 -109.48828125 341.2578125 C-110.43630615 340.75137207 -111.38433105 340.24493164 -112.36108398 339.72314453 C-113.33505127 339.19575684 -114.30901855 338.66836914 -115.3125 338.125 C-121.43504969 334.8568527 -127.46485413 331.64122039 -133.9375 329.125 C-138.98553129 327.15575344 -142.85660435 324.44655184 -147 321 C-148.97510465 319.47445275 -150.7674337 318.11628315 -153 317 C-153.36270588 315.00511766 -153.69169075 313.00401011 -154 311 C-154.33521321 310.28497912 -154.67042643 309.56995825 -155.01579762 308.83327007 C-156.33845119 305.02568451 -156.27272018 301.39832236 -156.24723816 297.41767883 C-156.24965257 296.55474927 -156.25206699 295.6918197 -156.25455457 294.80274075 C-156.26018923 291.91179244 -156.25152997 289.02106533 -156.24291992 286.13012695 C-156.2439929 284.05697062 -156.24593182 281.98381459 -156.24867249 279.91065979 C-156.25352292 274.27820308 -156.24586134 268.64582552 -156.23571944 263.01337838 C-156.22693573 257.11635697 -156.22869649 251.21933802 -156.2290802 245.3223114 C-156.22814329 235.4135099 -156.21945787 225.50473899 -156.20581055 215.59594727 C-156.19010644 204.15178795 -156.18481171 192.7076622 -156.1855461 181.26349288 C-156.18622274 169.07169303 -156.17927228 156.87990607 -156.1700995 144.68811011 C-156.16797176 141.18074287 -156.16725879 137.67337773 -156.16686058 134.1660099 C-156.16585266 128.64289951 -156.15971937 123.11981708 -156.14969444 117.59671593 C-156.14678442 115.5739293 -156.14554103 113.55113946 -156.14612198 111.52835083 C-156.14661635 108.75795106 -156.14092106 105.98762836 -156.13371277 103.21723938 C-156.13526137 102.42489735 -156.13680997 101.63255533 -156.1384055 100.81620294 C-156.06848124 84.43687128 -156.06848124 84.43687128 -151.44921875 78.375 C-149.76775522 76.77964916 -148.08321128 75.99962153 -146 75 C-144.90048303 74.14542493 -143.81815942 73.26846045 -142.75 72.375 C-138.98254632 69.50378078 -134.98432587 67.37341942 -130.7421875 65.3046875 C-129.69244247 64.78627289 -129.69244247 64.78627289 -128.62149048 64.25738525 C-127.15008583 63.53096162 -125.67785256 62.80621422 -124.20483398 62.08306885 C-120.72277765 60.37259687 -117.24829622 58.6469096 -113.7734375 56.921875 C-113.09170975 56.5836824 -112.40998199 56.24548981 -111.70759583 55.89704895 C-98.0444342 49.11560736 -84.48914577 42.21843946 -71.14453125 34.82421875 C-65.64696263 31.78433697 -60.07847889 28.88799631 -54.5 26 C-44.07990793 20.59957416 -33.77765113 14.99890026 -23.48583984 9.35888672 C-19.76986188 7.32754382 -16.04486067 5.31356267 -12.3125 3.3125 C-11.15363281 2.68988281 -9.99476563 2.06726563 -8.80078125 1.42578125 C-3.62582781 -1.20860927 -3.62582781 -1.20860927 0 0 Z M-154 85 C-153 87 -153 87 -153 87 Z " fill="#018F48" transform="translate(156,1)"/>
<path d="M0 0 C4.10108803 0.82021761 5.93607383 1.31220441 9.32421875 3.30859375 C10.17145508 3.799646 11.01869141 4.29069824 11.89160156 4.79663086 C12.81424805 5.33811768 13.73689453 5.87960449 14.6875 6.4375 C26.34505974 13.16028218 38.1998434 19.46651201 50.1081543 25.73022461 C50.80696213 26.09789444 51.50576996 26.46556427 52.22575378 26.84437561 C53.58997509 27.5618298 54.95455985 28.27859338 56.3195343 28.99461365 C61.24549032 31.58404102 66.12123795 34.25631669 70.96972656 36.98852539 C72.9203108 38.14864051 72.9203108 38.14864051 75 38 C75 116.54 75 195.08 75 276 C74.34 276 73.68 276 73 276 C72.67 226.83 72.34 177.66 72 127 C67.55286512 127.88942698 65.0767508 128.83564924 61.1953125 130.95703125 C60.06504639 131.56957764 58.93478027 132.18212402 57.77026367 132.81323242 C56.55516723 133.47963935 55.34007953 134.14606223 54.125 134.8125 C51.60436663 136.18246232 49.08134183 137.54799929 46.55859375 138.9140625 C45.92442032 139.25831772 45.29024689 139.60257294 44.63685608 139.95726013 C37.59551893 143.77462358 30.48878479 147.46446048 23.37353516 151.1418457 C19.56731418 153.11456932 15.7966781 155.09708628 12.109375 157.28515625 C8.51619252 159.26682347 6.04396848 159.66988012 2 160 C2 158.68 2 157.36 2 156 C1.15824219 155.58492187 0.31648438 155.16984375 -0.55078125 154.7421875 C-18.42815037 145.88387567 -36.09550202 136.60622141 -53.73535156 127.28588867 C-59.77933238 124.09914801 -65.86858056 121.01563461 -72 118 C-72.66 117.67 -73.32 117.34 -74 117 C-74 116.34 -74 115.68 -74 115 C-73.38616455 114.76998291 -72.7723291 114.53996582 -72.13989258 114.30297852 C-66.02462352 111.94430692 -60.38477064 109.16248624 -54.6875 105.9375 C-47.33467821 101.83648021 -39.91618599 97.90536995 -32.41015625 94.09375 C-31.57542282 93.66921036 -30.74068939 93.24467072 -29.88066101 92.80726624 C-26.49339175 91.08614715 -23.1053788 89.36677695 -19.70956421 87.66256714 C-17.30821148 86.45737679 -14.91167178 85.24303991 -12.515625 84.02734375 C-11.78638321 83.66527832 -11.05714142 83.30321289 -10.30580139 82.93017578 C-6.94666166 81.21721108 -5.13148913 80.1972337 -3 77 C-2.60986284 75.0103005 -2.26797351 73.00980131 -2 71 C-1.34 71 -0.68 71 0 71 C0 47.57 0 24.14 0 0 Z " fill="#59B357" transform="translate(181,83)"/>
<path d="M0 0 C-0.33 0.99 -0.66 1.98 -1 3 C-0.01 3.495 -0.01 3.495 1 4 C1.99 4.66 2.98 5.32 4 6 C5.81451008 7.01004397 7.6388849 8.00242319 9.46875 8.984375 C10.58435303 9.58314453 11.69995605 10.18191406 12.84936523 10.79882812 C14.06616272 11.44936985 15.28304306 12.09975661 16.5 12.75 C17.42439377 13.24487915 17.42439377 13.24487915 18.36746216 13.74975586 C28.75812892 19.31072676 39.19748313 24.773007 49.67578125 30.16699219 C56.22611405 33.54221043 62.73015159 36.98846366 69.20727539 40.50195312 C71.45501834 41.7076661 73.71063983 42.87610106 76 44 C65.84506035 49.35593083 55.68115533 54.6940501 45.5 60 C37.73637556 64.04611323 29.97563962 68.09740811 22.24047852 72.19775391 C17.77489145 74.56024247 13.28763333 76.87229381 8.77734375 79.1484375 C7.72417969 79.6846875 6.67101562 80.2209375 5.5859375 80.7734375 C3.52439347 81.82211375 1.4581195 82.86155523 -0.61328125 83.890625 C-1.5465625 84.36757813 -2.47984375 84.84453125 -3.44140625 85.3359375 C-4.27357666 85.75407715 -5.10574707 86.1722168 -5.96313477 86.60302734 C-8.2913777 88.19983977 -8.96910637 89.40882626 -10 92 C-10.66666667 93.33333333 -11.33333333 94.66666667 -12 96 C-12.33 96 -12.66 96 -13 96 C-13 114.15 -13 132.3 -13 151 C-23.11114518 147.62961827 -23.11114518 147.62961827 -27.48828125 145.2578125 C-28.43630615 144.75137207 -29.38433105 144.24493164 -30.36108398 143.72314453 C-31.33505127 143.19575684 -32.30901855 142.66836914 -33.3125 142.125 C-39.43504969 138.8568527 -45.46485413 135.64122039 -51.9375 133.125 C-56.98553129 131.15575344 -60.85660435 128.44655184 -65 125 C-66.97510465 123.47445275 -68.7674337 122.11628315 -71 121 C-71.36270588 119.00511766 -71.69169075 117.00401011 -72 115 C-72.50563477 113.97531616 -72.50563477 113.97531616 -73.02148438 112.92993164 C-74.47333374 108.58271503 -74.22738559 104.42225349 -74.15625 99.87109375 C-74.14815308 98.86533798 -74.14005615 97.85958221 -74.13171387 96.823349 C-74.10069546 93.54859908 -74.05254919 90.27447164 -74 87 C-73.98356445 85.90326965 -73.96712891 84.80653931 -73.95019531 83.67657471 C-73.82807088 75.8045895 -73.66779417 67.93362303 -73.5 60.0625 C-73.45160799 57.71029087 -73.40342992 55.35807733 -73.35546875 53.00585938 C-73.23943248 47.33718662 -73.12080526 41.66857303 -73 36 C-72.35788574 35.6690332 -71.71577148 35.33806641 -71.05419922 34.99707031 C-59.55945904 29.06495968 -48.08903028 23.10059248 -36.75 16.875 C-33.16789199 14.91441834 -29.58453796 12.9561354 -26 11 C-25.03884277 10.4750293 -24.07768555 9.95005859 -23.08740234 9.40917969 C-20.21013584 7.84460949 -17.32510614 6.29538726 -14.4375 4.75 C-13.56254883 4.27159668 -12.68759766 3.79319336 -11.78613281 3.30029297 C-10.96854492 2.86604004 -10.15095703 2.43178711 -9.30859375 1.984375 C-8.59501709 1.59991211 -7.88144043 1.21544922 -7.14624023 0.81933594 C-4.64440403 -0.13575021 -2.65596666 -0.14766675 0 0 Z " fill="#59B458" transform="translate(74,197)"/>
<!-- <path d="M0 0 C0.33 0 0.66 0 1 0 C1 49.17 1 98.34 1 149 C0.67 149 0.34 149 0 149 C0 99.83 0 50.66 0 0 Z " fill="#ffffff" transform="translate(86,297)"/> -->
<!-- <path d="M0 0 C0.33 0 0.66 0 1 0 C1 23.1 1 46.2 1 70 C0.67 70 0.34 70 0 70 C0 46.9 0 23.8 0 0 Z " fill="#FFFFFF" transform="translate(156,36)"/> -->
<!-- <path d="M0 0 C0.33 0 0.66 0 1 0 C1 21.45 1 42.9 1 65 C0.67 65 0.34 65 0 65 C0 43.55 0 22.1 0 0 Z " fill="#FFFFFf" transform="translate(179,83)"/> -->
<!-- <path d="M0 0 C0.33 0 0.66 0 1 0 C1 15.84 1 31.68 1 48 C0.67 48 0.34 48 0 48 C0 32.16 0 16.32 0 0 Z " fill="#FFFF" transform="translate(62,299)"/> -->
<!-- <path d="M0 0 C0.66 0.66 1.32 1.32 2 2 C-1.96 3.98 -1.96 3.98 -6 6 C-6 5.01 -6 4.02 -6 3 C-4.02 2.01 -2.04 1.02 0 0 Z " fill="#ffffff" transform="translate(149,154)"/> -->
<!-- <path d="M0 0 C0.33 0 0.66 0 1 0 C1 1.98 1 3.96 1 6 C0.67 6 0.34 6 0 6 C0 4.02 0 2.04 0 0 Z " fill="#FFFFFF" transform="translate(180,148)"/> -->
<path d="M0 0 C1 4 1 4 1 4 Z " fill="#00FF00" transform="translate(61,293)"/>
<path d="M0 0 C1 4 1 4 1 4 Z " fill="#009F3F" transform="translate(156,148)"/>
<path d="M0 0 C3 1 3 1 3 1 Z " fill="#71E271" transform="translate(54,347)"/>
<path d="M0 0 C3 1 3 1 3 1 Z " fill="#3FBF3F" transform="translate(26,333)"/>
<path d="M0 0 C3 1 3 1 3 1 Z " fill="#46B846" transform="translate(23,332)"/>
<path d="M0 0 C3 1 3 1 3 1 Z " fill="#46B846" transform="translate(178,238)"/>
<path d="M0 0 C3 1 3 1 3 1 Z " fill="#46E246" transform="translate(75,201)"/>
<path d="" fill="#00A93F" transform="translate(0,0)"/>
<path d="M0 0 C2 1 2 1 2 1 Z " fill="#005F1F" transform="translate(94,446)"/>
<path d="M0 0 C2 1 2 1 2 1 Z " fill="#003F1F" transform="translate(96,445)"/>
<path d="M0 0 C2 1 2 1 2 1 Z " fill="#002A2A" transform="translate(98,444)"/>
<path d="M0 0 C2 1 2 1 2 1 Z " fill="#002A2A" transform="translate(100,443)"/>
<path d="M0 0 C2 1 2 1 2 1 Z " fill="#002A2A" transform="translate(105,440)"/>
<path d="M0 0 C2 1 2 1 2 1 Z " fill="#007F3F" transform="translate(107,439)"/>
<path d="M0 0 C2 1 2 1 2 1 Z " fill="#007F3F" transform="translate(109,438)"/>
<path d="M0 0 C2 1 2 1 2 1 Z " fill="#006A2A" transform="translate(111,437)"/>
<path d="M0 0 C2 1 2 1 2 1 Z " fill="#00AA2A" transform="translate(113,436)"/>
<path d="M0 0 C2 1 2 1 2 1 Z " fill="#002A2A" transform="translate(115,435)"/>
<path d="M0 0 C2 1 2 1 2 1 Z " fill="#003F1F" transform="translate(117,434)"/>
<path d="M0 0 C2 1 2 1 2 1 Z " fill="#002A2A" transform="translate(119,433)"/>
<path d="M0 0 C2 1 2 1 2 1 Z " fill="#00AA2A" transform="translate(124,430)"/>
<path d="M0 0 C2 1 2 1 2 1 Z " fill="#007F3F" transform="translate(126,429)"/>
<path d="M0 0 C2 1 2 1 2 1 Z " fill="#006A2A" transform="translate(128,428)"/>
<path d="M0 0 C2 1 2 1 2 1 Z " fill="#006A2A" transform="translate(130,427)"/>
<path d="M0 0 C2 1 2 1 2 1 Z " fill="#00AA2A" transform="translate(132,426)"/>
<path d="M0 0 C2 1 2 1 2 1 Z " fill="#003F1F" transform="translate(134,425)"/>
<path d="M0 0 C2 1 2 1 2 1 Z " fill="#002A2A" transform="translate(136,424)"/>
<path d="M0 0 C2 1 2 1 2 1 Z " fill="#002A2A" transform="translate(138,423)"/>
<path d="M0 0 C2 1 2 1 2 1 Z " fill="#00AA2A" transform="translate(141,421)"/>
<path d="M0 0 C2 1 2 1 2 1 Z " fill="#007F3F" transform="translate(143,420)"/>
<path d="M0 0 C2 1 2 1 2 1 Z " fill="#006A2A" transform="translate(145,419)"/>
<path d="M0 0 C2 1 2 1 2 1 Z " fill="#006A2A" transform="translate(147,418)"/>
<path d="M0 0 C2 1 2 1 2 1 Z " fill="#00AA2A" transform="translate(149,417)"/>
<path d="M0 0 C2 1 2 1 2 1 Z " fill="#003F1F" transform="translate(151,416)"/>
<path d="M0 0 C2 1 2 1 2 1 Z " fill="#002A2A" transform="translate(153,415)"/>
<path d="M0 0 C2 1 2 1 2 1 Z " fill="#002A2A" transform="translate(156,413)"/>
<path d="M0 0 C2 1 2 1 2 1 Z " fill="#007F3F" transform="translate(158,412)"/>
<path d="M0 0 C2 1 2 1 2 1 Z " fill="#006A2A" transform="translate(160,411)"/>
<path d="M0 0 C2 1 2 1 2 1 Z " fill="#006A2A" transform="translate(162,410)"/>
<path d="M0 0 C2 1 2 1 2 1 Z " fill="#00D42A" transform="translate(164,409)"/>
<path d="M0 0 C2 1 2 1 2 1 Z " fill="#003F1F" transform="translate(166,408)"/>
<path d="M0 0 C2 1 2 1 2 1 Z " fill="#002A2A" transform="translate(168,407)"/>
<path d="M0 0 C2 1 2 1 2 1 Z " fill="#006A2A" transform="translate(173,404)"/>
<path d="M0 0 C2 1 2 1 2 1 Z " fill="#007F3F" transform="translate(175,403)"/>
<path d="M0 0 C2 1 2 1 2 1 Z " fill="#006A2A" transform="translate(177,402)"/>
<path d="M0 0 C2 1 2 1 2 1 Z " fill="#00BF1F" transform="translate(179,401)"/>
<path d="M0 0 C2 1 2 1 2 1 Z " fill="#001F1F" transform="translate(181,400)"/>
<path d="M0 0 C2 1 2 1 2 1 Z " fill="#003F1F" transform="translate(183,399)"/>
<path d="M0 0 C2 1 2 1 2 1 Z " fill="#00AA2A" transform="translate(188,396)"/>
<path d="M0 0 C2 1 2 1 2 1 Z " fill="#007F3F" transform="translate(190,395)"/>
<path d="M0 0 C2 1 2 1 2 1 Z " fill="#006A2A" transform="translate(192,394)"/>
<path d="M0 0 C2 1 2 1 2 1 Z " fill="#00AA2A" transform="translate(194,393)"/>
<path d="M0 0 C2 1 2 1 2 1 Z " fill="#001F1F" transform="translate(196,392)"/>
<path d="M0 0 C2 1 2 1 2 1 Z " fill="#003F1F" transform="translate(198,391)"/>
<path d="M0 0 C2 1 2 1 2 1 Z " fill="#006A2A" transform="translate(203,388)"/>
<path d="M0 0 C2 1 2 1 2 1 Z " fill="#007F3F" transform="translate(205,387)"/>
<path d="M0 0 C2 1 2 1 2 1 Z " fill="#006A2A" transform="translate(207,386)"/>
<path d="M0 0 C2 1 2 1 2 1 Z " fill="#00AA2A" transform="translate(209,385)"/>
<path d="M0 0 C2 1 2 1 2 1 Z " fill="#003F1F" transform="translate(211,384)"/>
<path d="M0 0 C2 1 2 1 2 1 Z " fill="#002A2A" transform="translate(213,383)"/>
<path d="M0 0 C2 1 2 1 2 1 Z " fill="#006A2A" transform="translate(218,380)"/>
<path d="M0 0 C2 1 2 1 2 1 Z " fill="#006A2A" transform="translate(220,379)"/>
<path d="M0 0 C2 1 2 1 2 1 Z " fill="#006A2A" transform="translate(222,378)"/>
<path d="M0 0 C2 1 2 1 2 1 Z " fill="#00D42A" transform="translate(224,377)"/>
<path d="M0 0 C2 1 2 1 2 1 Z " fill="#003F1F" transform="translate(226,376)"/>
<path d="M0 0 C2 1 2 1 2 1 Z " fill="#002A2A" transform="translate(228,375)"/>
<path d="M0 0 C2 1 2 1 2 1 Z " fill="#002A2A" transform="translate(231,373)"/>
<path d="M0 0 C2 1 2 1 2 1 Z " fill="#007F3F" transform="translate(233,372)"/>
<path d="M0 0 C2 1 2 1 2 1 Z " fill="#006A2A" transform="translate(235,371)"/>
<path d="M0 0 C2 1 2 1 2 1 Z " fill="#006A2A" transform="translate(237,370)"/>
<path d="M0 0 C2 1 2 1 2 1 Z " fill="#00BF1F" transform="translate(239,369)"/>
<path d="M0 0 C2 1 2 1 2 1 Z " fill="#001F1F" transform="translate(241,368)"/>
<path d="M0 0 C2 1 2 1 2 1 Z " fill="#002A2A" transform="translate(243,367)"/>
<path d="M0 0 C2 1 2 1 2 1 Z " fill="#00AA2A" transform="translate(246,365)"/>
<path d="M0 0 C2 1 2 1 2 1 Z " fill="#007F7F" transform="translate(248,364)"/>
<path d="M0 0 C2 1 2 1 2 1 Z " fill="#006A2A" transform="translate(250,363)"/>
<path d="M0 0 C2 1 2 1 2 1 Z " fill="#006A2A" transform="translate(252,362)"/>
<path d="M0 0 C2 1 2 1 2 1 Z " fill="#5FDF5F" transform="translate(57,348)"/>
<path d="M0 0 C2 1 2 1 2 1 Z " fill="#1FDF1F" transform="translate(52,346)"/>
<path d="M0 0 C2 1 2 1 2 1 Z " fill="#2AFF2A" transform="translate(50,345)"/>
<path d="M0 0 C2 1 2 1 2 1 Z " fill="#1FDF1F" transform="translate(48,344)"/>
<path d="M0 0 C2 1 2 1 2 1 Z " fill="#1F5F1F" transform="translate(46,343)"/>
<path d="M0 0 C2 1 2 1 2 1 Z " fill="#3FFF3F" transform="translate(43,341)"/>
<path d="M0 0 C2 1 2 1 2 1 Z " fill="#6A946A" transform="translate(41,340)"/>
<path d="M0 0 C2 1 2 1 2 1 Z " fill="#1FDF1F" transform="translate(39,339)"/>
<path d="M0 0 C2 1 2 1 2 1 Z " fill="#1F3F1F" transform="translate(37,338)"/>
<path d="M0 0 C2 1 2 1 2 1 Z " fill="#2A552A" transform="translate(33,336)"/>
<path d="M0 0 C2 1 2 1 2 1 Z " fill="#2AD42A" transform="translate(31,335)"/>
<path d="M0 0 C2 1 2 1 2 1 Z " fill="#5FDF5F" transform="translate(29,334)"/>
<path d="M0 0 C2 1 2 1 2 1 Z " fill="#6A946A" transform="translate(21,331)"/>
<path d="M0 0 C2 1 2 1 2 1 Z " fill="#6AD46A" transform="translate(19,330)"/>
<path d="M0 0 C2 1 2 1 2 1 Z " fill="#7FFF7F" transform="translate(17,329)"/>
<path d="M0 0 C2 1 2 1 2 1 Z " fill="#2AD42A" transform="translate(15,328)"/>
<path d="M0 0 C2 1 2 1 2 1 Z " fill="#2AD42A" transform="translate(12,326)"/>
<path d="" fill="#6AD46A" transform="translate(0,0)"/>
<path d="" fill="#6A946A" transform="translate(0,0)"/>
<path d="" fill="#55AA55" transform="translate(0,0)"/>
<path d="M0 0 C2 1 2 1 2 1 Z " fill="#00AA2A" transform="translate(93,289)"/>
<path d="M0 0 C2 1 2 1 2 1 Z " fill="#007F3F" transform="translate(95,288)"/>
<path d="M0 0 C2 1 2 1 2 1 Z " fill="#006A2A" transform="translate(97,287)"/>
<path d="M0 0 C2 1 2 1 2 1 Z " fill="#002A2A" transform="translate(99,286)"/>
<path d="M0 0 C2 1 2 1 2 1 Z " fill="#002A2A" transform="translate(101,285)"/>
<path d="M0 0 C2 1 2 1 2 1 Z " fill="#1FDF1F" transform="translate(66,285)"/>
<path d="M0 0 C2 1 2 1 2 1 Z " fill="#1FDF1F" transform="translate(68,284)"/>
<path d="M0 0 C2 1 2 1 2 1 Z " fill="#002A2A" transform="translate(104,283)"/>
<path d="M0 0 C2 1 2 1 2 1 Z " fill="#2AFF2A" transform="translate(70,283)"/>
<path d="M0 0 C2 1 2 1 2 1 Z " fill="#002A2A" transform="translate(106,282)"/>
<path d="M0 0 C2 1 2 1 2 1 Z " fill="#1FDF1F" transform="translate(72,282)"/>
<path d="M0 0 C2 1 2 1 2 1 Z " fill="#001F1F" transform="translate(108,281)"/>
<path d="M0 0 C2 1 2 1 2 1 Z " fill="#1FDF1F" transform="translate(74,281)"/>
<path d="M0 0 C2 1 2 1 2 1 Z " fill="#001F1F" transform="translate(110,280)"/>
<path d="M0 0 C2 1 2 1 2 1 Z " fill="#1FDF1F" transform="translate(76,280)"/>
<path d="M0 0 C2 1 2 1 2 1 Z " fill="#001F1F" transform="translate(112,279)"/>
<path d="M0 0 C2 1 2 1 2 1 Z " fill="#2A552A" transform="translate(78,279)"/>
<path d="M0 0 C2 1 2 1 2 1 Z " fill="#00BF1F" transform="translate(114,278)"/>
<path d="M0 0 C2 1 2 1 2 1 Z " fill="#2A552A" transform="translate(80,278)"/>
<path d="M0 0 C2 1 2 1 2 1 Z " fill="#006A2A" transform="translate(116,277)"/>
<path d="M0 0 C2 1 2 1 2 1 Z " fill="#2A552A" transform="translate(82,277)"/>
<path d="M0 0 C2 1 2 1 2 1 Z " fill="#006A2A" transform="translate(118,276)"/>
<path d="M0 0 C2 1 2 1 2 1 Z " fill="#006A2A" transform="translate(120,275)"/>
<path d="M0 0 C2 1 2 1 2 1 Z " fill="#2AD42A" transform="translate(85,275)"/>
<path d="M0 0 C2 1 2 1 2 1 Z " fill="#007F7F" transform="translate(122,274)"/>
<path d="M0 0 C2 1 2 1 2 1 Z " fill="#AAD4AA" transform="translate(87,274)"/>
<path d="M0 0 C2 1 2 1 2 1 Z " fill="#006A2A" transform="translate(124,273)"/>
<path d="M0 0 C2 1 2 1 2 1 Z " fill="#7FFF7F" transform="translate(89,273)"/>
<path d="M0 0 C2 1 2 1 2 1 Z " fill="#002A2A" transform="translate(126,272)"/>
<path d="M0 0 C2 1 2 1 2 1 Z " fill="#7FFF7F" transform="translate(91,272)"/>
<path d="M0 0 C2 1 2 1 2 1 Z " fill="#6A946A" transform="translate(93,271)"/>
<path d="M0 0 C2 1 2 1 2 1 Z " fill="#6A946A" transform="translate(95,270)"/>
<path d="M0 0 C2 1 2 1 2 1 Z " fill="#002A2A" transform="translate(131,269)"/>
<path d="M0 0 C2 1 2 1 2 1 Z " fill="#2AFF2A" transform="translate(97,269)"/>
<path d="M0 0 C2 1 2 1 2 1 Z " fill="#00552A" transform="translate(133,268)"/>
<path d="M0 0 C2 1 2 1 2 1 Z " fill="#2AFF2A" transform="translate(99,268)"/>
<path d="M0 0 C2 1 2 1 2 1 Z " fill="#001F1F" transform="translate(135,267)"/>
<path d="M0 0 C2 1 2 1 2 1 Z " fill="#1FDF1F" transform="translate(101,267)"/>
<path d="M0 0 C2 1 2 1 2 1 Z " fill="#00AA2A" transform="translate(137,266)"/>
<path d="M0 0 C2 1 2 1 2 1 Z " fill="#1F5F1F" transform="translate(103,266)"/>
<path d="M0 0 C2 1 2 1 2 1 Z " fill="#006A2A" transform="translate(139,265)"/>
<path d="M0 0 C2 1 2 1 2 1 Z " fill="#2A552A" transform="translate(105,265)"/>
<path d="M0 0 C2 1 2 1 2 1 Z " fill="#006A2A" transform="translate(141,264)"/>
<path d="M0 0 C2 1 2 1 2 1 Z " fill="#006A2A" transform="translate(143,263)"/>
<path d="M0 0 C2 1 2 1 2 1 Z " fill="#2AD42A" transform="translate(108,263)"/>
<path d="M0 0 C2 1 2 1 2 1 Z " fill="#006A2A" transform="translate(145,262)"/>
<path d="M0 0 C2 1 2 1 2 1 Z " fill="#6A946A" transform="translate(110,262)"/>
<path d="M0 0 C2 1 2 1 2 1 Z " fill="#002A2A" transform="translate(147,261)"/>
<path d="M0 0 C2 1 2 1 2 1 Z " fill="#7FFF7F" transform="translate(112,261)"/>
<path d="M0 0 C2 1 2 1 2 1 Z " fill="#6A946A" transform="translate(114,260)"/>
<path d="M0 0 C2 1 2 1 2 1 Z " fill="#002A2A" transform="translate(150,259)"/>
<path d="M0 0 C2 1 2 1 2 1 Z " fill="#6A946A" transform="translate(116,259)"/>
<path d="M0 0 C2 1 2 1 2 1 Z " fill="#001F1F" transform="translate(152,258)"/>
<path d="M0 0 C2 1 2 1 2 1 Z " fill="#1FDF1F" transform="translate(118,258)"/>
<path d="M0 0 C2 1 2 1 2 1 Z " fill="#003F1F" transform="translate(154,257)"/>
<path d="M0 0 C2 1 2 1 2 1 Z " fill="#1FDF1F" transform="translate(120,257)"/>
<path d="M0 0 C2 1 2 1 2 1 Z " fill="#001F1F" transform="translate(156,256)"/>
<path d="M0 0 C2 1 2 1 2 1 Z " fill="#1FDF1F" transform="translate(122,256)"/>
<path d="M0 0 C2 1 2 1 2 1 Z " fill="#00AA2A" transform="translate(158,255)"/>
<path d="M0 0 C2 1 2 1 2 1 Z " fill="#006A2A" transform="translate(160,254)"/>
<path d="M0 0 C2 1 2 1 2 1 Z " fill="#006A2A" transform="translate(162,253)"/>
<path d="M0 0 C2 1 2 1 2 1 Z " fill="#2AD42A" transform="translate(127,253)"/>
<path d="M0 0 C2 1 2 1 2 1 Z " fill="#007F3F" transform="translate(164,252)"/>
<path d="M0 0 C2 1 2 1 2 1 Z " fill="#7FBF7F" transform="translate(129,252)"/>
<path d="M0 0 C2 1 2 1 2 1 Z " fill="#002A2A" transform="translate(166,251)"/>
<path d="M0 0 C2 1 2 1 2 1 Z " fill="#6A946A" transform="translate(131,251)"/>
<path d="M0 0 C2 1 2 1 2 1 Z " fill="#1FDF1F" transform="translate(133,250)"/>
<path d="M0 0 C2 1 2 1 2 1 Z " fill="#2A7F2A" transform="translate(135,249)"/>
<path d="M0 0 C2 1 2 1 2 1 Z " fill="#002A2A" transform="translate(171,248)"/>
<path d="M0 0 C2 1 2 1 2 1 Z " fill="#001F1F" transform="translate(173,247)"/>
<path d="M0 0 C2 1 2 1 2 1 Z " fill="#7FBF7F" transform="translate(138,247)"/>
<path d="M0 0 C2 1 2 1 2 1 Z " fill="#003F1F" transform="translate(175,246)"/>
<path d="M0 0 C2 1 2 1 2 1 Z " fill="#6A946A" transform="translate(140,246)"/>
<path d="M0 0 C2 1 2 1 2 1 Z " fill="#00AA2A" transform="translate(177,245)"/>
<path d="M0 0 C2 1 2 1 2 1 Z " fill="#2AFF2A" transform="translate(142,245)"/>
<path d="M0 0 C2 1 2 1 2 1 Z " fill="#006A2A" transform="translate(179,244)"/>
<path d="M0 0 C2 1 2 1 2 1 Z " fill="#1FDF1F" transform="translate(144,244)"/>
<path d="M0 0 C2 1 2 1 2 1 Z " fill="#006A2A" transform="translate(181,243)"/>
<path d="M0 0 C2 1 2 1 2 1 Z " fill="#5F9F5F" transform="translate(181,239)"/>
<path d="M0 0 C2 1 2 1 2 1 Z " fill="#2A552A" transform="translate(176,237)"/>
<path d="M0 0 C2 1 2 1 2 1 Z " fill="#AAD42A" transform="translate(144,237)"/>
<path d="M0 0 C2 1 2 1 2 1 Z " fill="#6A946A" transform="translate(142,236)"/>
<path d="M0 0 C2 1 2 1 2 1 Z " fill="#2AD42A" transform="translate(173,235)"/>
<path d="M0 0 C2 1 2 1 2 1 Z " fill="#6A946A" transform="translate(140,235)"/>
<path d="M0 0 C2 1 2 1 2 1 Z " fill="#7FBF7F" transform="translate(171,234)"/>
<path d="M0 0 C2 1 2 1 2 1 Z " fill="#7FFF7F" transform="translate(138,234)"/>
<path d="M0 0 C2 1 2 1 2 1 Z " fill="#6A946A" transform="translate(169,233)"/>
<path d="M0 0 C2 1 2 1 2 1 Z " fill="#2AD42A" transform="translate(136,233)"/>
<path d="M0 0 C2 1 2 1 2 1 Z " fill="#AAD4AA" transform="translate(167,232)"/>
<path d="M0 0 C2 1 2 1 2 1 Z " fill="#2A552A" transform="translate(134,232)"/>
<path d="M0 0 C2 1 2 1 2 1 Z " fill="#1FDF1F" transform="translate(165,231)"/>
<path d="M0 0 C2 1 2 1 2 1 Z " fill="#1FDF1F" transform="translate(163,230)"/>
<path d="M0 0 C2 1 2 1 2 1 Z " fill="#2A552A" transform="translate(131,230)"/>
<path d="M0 0 C2 1 2 1 2 1 Z " fill="#2A552A" transform="translate(161,229)"/>
<path d="M0 0 C2 1 2 1 2 1 Z " fill="#2AD42A" transform="translate(129,229)"/>
<path d="M0 0 C2 1 2 1 2 1 Z " fill="#1FDF1F" transform="translate(127,228)"/>
<path d="M0 0 C2 1 2 1 2 1 Z " fill="#1FBF1F" transform="translate(125,227)"/>
<path d="M0 0 C2 1 2 1 2 1 Z " fill="#6A946A" transform="translate(156,226)"/>
<path d="M0 0 C2 1 2 1 2 1 Z " fill="#AAD4AA" transform="translate(123,226)"/>
<path d="M0 0 C2 1 2 1 2 1 Z " fill="#7FFF7F" transform="translate(154,225)"/>
<path d="M0 0 C2 1 2 1 2 1 Z " fill="#6A946A" transform="translate(121,225)"/>
<path d="M0 0 C2 1 2 1 2 1 Z " fill="#6A946A" transform="translate(152,224)"/>
<path d="M0 0 C2 1 2 1 2 1 Z " fill="#6A946A" transform="translate(119,224)"/>
<path d="M0 0 C2 1 2 1 2 1 Z " fill="#6A946A" transform="translate(150,223)"/>
<path d="M0 0 C2 1 2 1 2 1 Z " fill="#7FFF7F" transform="translate(117,223)"/>
<path d="M0 0 C2 1 2 1 2 1 Z " fill="#2AFF2A" transform="translate(148,222)"/>
<path d="M0 0 C2 1 2 1 2 1 Z " fill="#AAD4AA" transform="translate(115,222)"/>
<path d="M0 0 C2 1 2 1 2 1 Z " fill="#1FDF1F" transform="translate(146,221)"/>
<path d="M0 0 C2 1 2 1 2 1 Z " fill="#2AD42A" transform="translate(113,221)"/>
<path d="M0 0 C2 1 2 1 2 1 Z " fill="#1FDF1F" transform="translate(144,220)"/>
<path d="M0 0 C2 1 2 1 2 1 Z " fill="#1F5F1F" transform="translate(142,219)"/>
<path d="M0 0 C2 1 2 1 2 1 Z " fill="#2A552A" transform="translate(110,219)"/>
<path d="M0 0 C2 1 2 1 2 1 Z " fill="#2AFF2A" transform="translate(108,218)"/>
<path d="M0 0 C2 1 2 1 2 1 Z " fill="#1FDF1F" transform="translate(106,217)"/>
<path d="M0 0 C2 1 2 1 2 1 Z " fill="#2AD42A" transform="translate(137,216)"/>
<path d="M0 0 C2 1 2 1 2 1 Z " fill="#2AD42A" transform="translate(104,216)"/>
<path d="M0 0 C2 1 2 1 2 1 Z " fill="#6A946A" transform="translate(135,215)"/>
<path d="M0 0 C2 1 2 1 2 1 Z " fill="#6A946A" transform="translate(102,215)"/>
<path d="M0 0 C2 1 2 1 2 1 Z " fill="#7FFF7F" transform="translate(133,214)"/>
<path d="M0 0 C2 1 2 1 2 1 Z " fill="#6A946A" transform="translate(100,214)"/>
<path d="M0 0 C2 1 2 1 2 1 Z " fill="#6A946A" transform="translate(131,213)"/>
<path d="M0 0 C2 1 2 1 2 1 Z " fill="#7FFF7F" transform="translate(98,213)"/>
<path d="M0 0 C2 1 2 1 2 1 Z " fill="#6A946A" transform="translate(129,212)"/>
<path d="M0 0 C2 1 2 1 2 1 Z " fill="#2AD42A" transform="translate(96,212)"/>
<path d="M0 0 C2 1 2 1 2 1 Z " fill="#9FDF1F" transform="translate(127,211)"/>
<path d="M0 0 C2 1 2 1 2 1 Z " fill="#1FDF1F" transform="translate(125,210)"/>
<path d="M0 0 C2 1 2 1 2 1 Z " fill="#1FDF1F" transform="translate(123,209)"/>
<path d="M0 0 C2 1 2 1 2 1 Z " fill="#2A552A" transform="translate(91,209)"/>
<path d="M0 0 C2 1 2 1 2 1 Z " fill="#2A552A" transform="translate(121,208)"/>
<path d="M0 0 C2 1 2 1 2 1 Z " fill="#1FDF1F" transform="translate(89,208)"/>
<path d="M0 0 C2 1 2 1 2 1 Z " fill="#2A552A" transform="translate(119,207)"/>
<path d="M0 0 C2 1 2 1 2 1 Z " fill="#2AFF2A" transform="translate(87,207)"/>
<path d="M0 0 C2 1 2 1 2 1 Z " fill="#6A946A" transform="translate(85,206)"/>
<path d="M0 0 C2 1 2 1 2 1 Z " fill="#2AD42A" transform="translate(116,205)"/>
<path d="M0 0 C2 1 2 1 2 1 Z " fill="#7FBF7F" transform="translate(83,205)"/>
<path d="M0 0 C2 1 2 1 2 1 Z " fill="#6A946A" transform="translate(114,204)"/>
<path d="M0 0 C2 1 2 1 2 1 Z " fill="#6A946A" transform="translate(81,204)"/>
<path d="M0 0 C2 1 2 1 2 1 Z " fill="#7FFF7F" transform="translate(112,203)"/>
<path d="M0 0 C2 1 2 1 2 1 Z " fill="#6A946A" transform="translate(110,202)"/>
<path d="M0 0 C2 1 2 1 2 1 Z " fill="#6A946A" transform="translate(109,196)"/>
<path d="M0 0 C2 1 2 1 2 1 Z " fill="#00946A" transform="translate(74,196)"/>
<path d="M0 0 C2 1 2 1 2 1 Z " fill="#6A946A" transform="translate(111,195)"/>
<path d="M0 0 C2 1 2 1 2 1 Z " fill="#00942A" transform="translate(76,195)"/>
<path d="M0 0 C2 1 2 1 2 1 Z " fill="#7FFF7F" transform="translate(113,194)"/>
<path d="M0 0 C2 1 2 1 2 1 Z " fill="#00D42A" transform="translate(78,194)"/>
<path d="M0 0 C2 1 2 1 2 1 Z " fill="#2AD42A" transform="translate(115,193)"/>
<path d="M0 0 C2 1 2 1 2 1 Z " fill="#00BF1F" transform="translate(80,193)"/>
<path d="M0 0 C2 1 2 1 2 1 Z " fill="#00BF1F" transform="translate(82,192)"/>
<path d="M0 0 C2 1 2 1 2 1 Z " fill="#00552A" transform="translate(84,191)"/>
<path d="M0 0 C2 1 2 1 2 1 Z " fill="#1F5F1F" transform="translate(120,190)"/>
<path d="M0 0 C2 1 2 1 2 1 Z " fill="#003F1F" transform="translate(86,190)"/>
<path d="M0 0 C2 1 2 1 2 1 Z " fill="#1FDF1F" transform="translate(122,189)"/>
<path d="M0 0 C2 1 2 1 2 1 Z " fill="#1FDF1F" transform="translate(124,188)"/>
<path d="M0 0 C2 1 2 1 2 1 Z " fill="#6A946A" transform="translate(126,187)"/>
<path d="M0 0 C2 1 2 1 2 1 Z " fill="#00D42A" transform="translate(91,187)"/>
<path d="M0 0 C2 1 2 1 2 1 Z " fill="#6A946A" transform="translate(128,186)"/>
<path d="M0 0 C2 1 2 1 2 1 Z " fill="#006A6A" transform="translate(93,186)"/>
<path d="M0 0 C2 1 2 1 2 1 Z " fill="#7FBF7F" transform="translate(130,185)"/>
<path d="M0 0 C2 1 2 1 2 1 Z " fill="#007F7F" transform="translate(95,185)"/>
<path d="M0 0 C2 1 2 1 2 1 Z " fill="#2AD42A" transform="translate(132,184)"/>
<path d="M0 0 C2 1 2 1 2 1 Z " fill="#00946A" transform="translate(97,184)"/>
<path d="M0 0 C2 1 2 1 2 1 Z " fill="#00942A" transform="translate(99,183)"/>
<path d="M0 0 C2 1 2 1 2 1 Z " fill="#00942A" transform="translate(101,182)"/>
<path d="M0 0 C2 1 2 1 2 1 Z " fill="#1FDF1F" transform="translate(137,181)"/>
<path d="M0 0 C2 1 2 1 2 1 Z " fill="#00D42A" transform="translate(103,181)"/>
<path d="M0 0 C2 1 2 1 2 1 Z " fill="#1FDF1F" transform="translate(139,180)"/>
<path d="M0 0 C2 1 2 1 2 1 Z " fill="#00BF1F" transform="translate(105,180)"/>
<path d="M0 0 C2 1 2 1 2 1 Z " fill="#1FDF1F" transform="translate(141,179)"/>
<path d="M0 0 C2 1 2 1 2 1 Z " fill="#003F1F" transform="translate(107,179)"/>
<path d="M0 0 C2 1 2 1 2 1 Z " fill="#6A946A" transform="translate(143,178)"/>
<path d="M0 0 C2 1 2 1 2 1 Z " fill="#003F1F" transform="translate(109,178)"/>
<path d="M0 0 C2 1 2 1 2 1 Z " fill="#6A946A" transform="translate(145,177)"/>
<path d="M0 0 C2 1 2 1 2 1 Z " fill="#00552A" transform="translate(111,177)"/>
<path d="M0 0 C2 1 2 1 2 1 Z " fill="#7FFF7F" transform="translate(147,176)"/>
<path d="M0 0 C2 1 2 1 2 1 Z " fill="#6A946A" transform="translate(149,175)"/>
<path d="M0 0 C2 1 2 1 2 1 Z " fill="#2AD42A" transform="translate(151,174)"/>
<path d="M0 0 C2 1 2 1 2 1 Z " fill="#00D42A" transform="translate(116,174)"/>
<path d="M0 0 C2 1 2 1 2 1 Z " fill="#006A2A" transform="translate(118,173)"/>
<path d="M0 0 C2 1 2 1 2 1 Z " fill="#2A552A" transform="translate(154,172)"/>
<path d="M0 0 C2 1 2 1 2 1 Z " fill="#007F7F" transform="translate(120,172)"/>
<path d="M0 0 C2 1 2 1 2 1 Z " fill="#2A552A" transform="translate(156,171)"/>
<path d="M0 0 C2 1 2 1 2 1 Z " fill="#00946A" transform="translate(122,171)"/>
<path d="M0 0 C2 1 2 1 2 1 Z " fill="#1FDF1F" transform="translate(158,170)"/>
<path d="M0 0 C2 1 2 1 2 1 Z " fill="#00946A" transform="translate(124,170)"/>
<path d="M0 0 C2 1 2 1 2 1 Z " fill="#1FDF1F" transform="translate(160,169)"/>
<path d="M0 0 C2 1 2 1 2 1 Z " fill="#00946A" transform="translate(126,169)"/>
<path d="M0 0 C2 1 2 1 2 1 Z " fill="#1FDF1F" transform="translate(162,168)"/>
<path d="M0 0 C2 1 2 1 2 1 Z " fill="#00D42A" transform="translate(128,168)"/>
<path d="M0 0 C2 1 2 1 2 1 Z " fill="#1FDF1F" transform="translate(164,167)"/>
<path d="M0 0 C2 1 2 1 2 1 Z " fill="#00BF1F" transform="translate(130,167)"/>
<path d="M0 0 C2 1 2 1 2 1 Z " fill="#2AD42A" transform="translate(166,166)"/>
<path d="M0 0 C2 1 2 1 2 1 Z " fill="#00BF1F" transform="translate(132,166)"/>
<path d="M0 0 C2 1 2 1 2 1 Z " fill="#6ABF6A" transform="translate(168,165)"/>
<path d="M0 0 C2 1 2 1 2 1 Z " fill="#00BF1F" transform="translate(134,165)"/>
<path d="M0 0 C2 1 2 1 2 1 Z " fill="#6A946A" transform="translate(170,164)"/>
<path d="M0 0 C2 1 2 1 2 1 Z " fill="#003F1F" transform="translate(136,164)"/>
<path d="M0 0 C2 1 2 1 2 1 Z " fill="#6A946A" transform="translate(172,163)"/>
<path d="M0 0 C2 1 2 1 2 1 Z " fill="#003F1F" transform="translate(138,163)"/>
<path d="M0 0 C2 1 2 1 2 1 Z " fill="#6A946A" transform="translate(174,162)"/>
<path d="M0 0 C2 1 2 1 2 1 Z " fill="#00552A" transform="translate(140,162)"/>
<path d="M0 0 C2 1 2 1 2 1 Z " fill="#00552A" transform="translate(142,161)"/>
<path d="M0 0 C2 1 2 1 2 1 Z " fill="#00552A" transform="translate(144,160)"/>
<path d="M0 0 C2 1 2 1 2 1 Z " fill="#003F3F" transform="translate(151,156)"/>
<path d="M0 0 C2 1 2 1 2 1 Z " fill="#1FDF1F" transform="translate(250,118)"/>
<path d="M0 0 C2 1 2 1 2 1 Z " fill="#2AD42A" transform="translate(248,117)"/>
<path d="M0 0 C2 1 2 1 2 1 Z " fill="#6A946A" transform="translate(246,116)"/>
<path d="M0 0 C2 1 2 1 2 1 Z " fill="#7FBF7F" transform="translate(244,115)"/>
<path d="M0 0 C2 1 2 1 2 1 Z " fill="#1FDF1F" transform="translate(239,112)"/>
<path d="M0 0 C2 1 2 1 2 1 Z " fill="#2AD42A" transform="translate(237,111)"/>
<path d="M0 0 C2 1 2 1 2 1 Z " fill="#6A946A" transform="translate(235,110)"/>
<path d="M0 0 C2 1 2 1 2 1 Z " fill="#7FFF7F" transform="translate(233,109)"/>
<path d="M0 0 C2 1 2 1 2 1 Z " fill="#2AD42A" transform="translate(231,108)"/>
<path d="M0 0 C2 1 2 1 2 1 Z " fill="#2A7F2A" transform="translate(228,106)"/>
<path d="M0 0 C2 1 2 1 2 1 Z " fill="#1FBF1F" transform="translate(226,105)"/>
<path d="M0 0 C2 1 2 1 2 1 Z " fill="#6A946A" transform="translate(224,104)"/>
<path d="M0 0 C2 1 2 1 2 1 Z " fill="#7FFF7F" transform="translate(222,103)"/>
<path d="M0 0 C2 1 2 1 2 1 Z " fill="#2AD42A" transform="translate(220,102)"/>
<path d="M0 0 C2 1 2 1 2 1 Z " fill="#2A7F2A" transform="translate(217,100)"/>
<path d="M0 0 C2 1 2 1 2 1 Z " fill="#1FDF1F" transform="translate(215,99)"/>
<path d="M0 0 C2 1 2 1 2 1 Z " fill="#6A946A" transform="translate(213,98)"/>
<path d="M0 0 C2 1 2 1 2 1 Z " fill="#7FFF7F" transform="translate(211,97)"/>
<path d="M0 0 C2 1 2 1 2 1 Z " fill="#2AD42A" transform="translate(209,96)"/>
<path d="M0 0 C2 1 2 1 2 1 Z " fill="#1F5F1F" transform="translate(206,94)"/>
<path d="M0 0 C2 1 2 1 2 1 Z " fill="#2AFF2A" transform="translate(204,93)"/>
<path d="M0 0 C2 1 2 1 2 1 Z " fill="#6A946A" transform="translate(202,92)"/>
<path d="M0 0 C2 1 2 1 2 1 Z " fill="#7FFF7F" transform="translate(200,91)"/>
<path d="M0 0 C2 1 2 1 2 1 Z " fill="#2AD42A" transform="translate(198,90)"/>
<path d="M0 0 C2 1 2 1 2 1 Z " fill="#1F5F1F" transform="translate(195,88)"/>
<path d="M0 0 C2 1 2 1 2 1 Z " fill="#1FDF1F" transform="translate(193,87)"/>
<path d="M0 0 C2 1 2 1 2 1 Z " fill="#6A946A" transform="translate(191,86)"/>
<path d="M0 0 C2 1 2 1 2 1 Z " fill="#7FFF7F" transform="translate(189,85)"/>
<path d="M0 0 C2 1 2 1 2 1 Z " fill="#2AD42A" transform="translate(187,84)"/>
<path d="M0 0 C2 1 2 1 2 1 Z " fill="#2A552A" transform="translate(184,82)"/>
<path d="M0 0 C2 1 2 1 2 1 Z " fill="#2AD42A" transform="translate(182,81)"/>
<path d="M0 0 C2 1 2 1 2 1 Z " fill="#00BF00" transform="translate(12,72)"/>
<path d="M0 0 C2 1 2 1 2 1 Z " fill="#00552A" transform="translate(16,69)"/>
<path d="M0 0 C2 1 2 1 2 1 Z " fill="#00BF3F" transform="translate(18,68)"/>
<path d="M0 0 C2 1 2 1 2 1 Z " fill="#00552A" transform="translate(21,66)"/>
<path d="M0 0 C2 1 2 1 2 1 Z " fill="#00BF1F" transform="translate(23,65)"/>
<path d="M0 0 C2 1 2 1 2 1 Z " fill="#00552A" transform="translate(25,64)"/>
<path d="M0 0 C2 1 2 1 2 1 Z " fill="#00552A" transform="translate(27,63)"/>
<path d="M0 0 C2 1 2 1 2 1 Z " fill="#00D42A" transform="translate(30,62)"/>
<path d="M0 0 C2 1 2 1 2 1 Z " fill="#00946A" transform="translate(32,61)"/>
<path d="M0 0 C2 1 2 1 2 1 Z " fill="#007F7F" transform="translate(34,60)"/>
<path d="M0 0 C2 1 2 1 2 1 Z " fill="#00946A" transform="translate(36,59)"/>
<path d="M0 0 C2 1 2 1 2 1 Z " fill="#00946A" transform="translate(38,58)"/>
<path d="M0 0 C2 1 2 1 2 1 Z " fill="#00946A" transform="translate(40,57)"/>
<path d="M0 0 C2 1 2 1 2 1 Z " fill="#00946A" transform="translate(42,56)"/>
<path d="M0 0 C2 1 2 1 2 1 Z " fill="#00942A" transform="translate(44,55)"/>
<path d="M0 0 C2 1 2 1 2 1 Z " fill="#00946A" transform="translate(46,54)"/>
<path d="M0 0 C2 1 2 1 2 1 Z " fill="#00942A" transform="translate(48,53)"/>
<path d="M0 0 C2 1 2 1 2 1 Z " fill="#00942A" transform="translate(50,52)"/>
<path d="M0 0 C2 1 2 1 2 1 Z " fill="#00946A" transform="translate(52,51)"/>
<path d="M0 0 C2 1 2 1 2 1 Z " fill="#00946A" transform="translate(54,50)"/>
<path d="M0 0 C2 1 2 1 2 1 Z " fill="#00946A" transform="translate(56,49)"/>
<path d="M0 0 C2 1 2 1 2 1 Z " fill="#00946A" transform="translate(58,48)"/>
<path d="M0 0 C2 1 2 1 2 1 Z " fill="#00BF7F" transform="translate(60,47)"/>
<path d="M0 0 C2 1 2 1 2 1 Z " fill="#007F7F" transform="translate(62,46)"/>
<path d="M0 0 C2 1 2 1 2 1 Z " fill="#00AA2A" transform="translate(64,45)"/>
<path d="M0 0 C2 1 2 1 2 1 Z " fill="#00D42A" transform="translate(66,44)"/>
<path d="M0 0 C2 1 2 1 2 1 Z " fill="#00552A" transform="translate(71,41)"/>
<path d="M0 0 C2 1 2 1 2 1 Z " fill="#003F1F" transform="translate(73,40)"/>
<path d="M0 0 C2 1 2 1 2 1 Z " fill="#00BF1F" transform="translate(75,39)"/>
<path d="M0 0 C2 1 2 1 2 1 Z " fill="#00D42A" transform="translate(77,38)"/>
<path d="M0 0 C2 1 2 1 2 1 Z " fill="#00942A" transform="translate(79,37)"/>
<path d="M0 0 C2 1 2 1 2 1 Z " fill="#006A6A" transform="translate(81,36)"/>
<path d="M0 0 C2 1 2 1 2 1 Z " fill="#006A6A" transform="translate(83,35)"/>
<path d="M0 0 C2 1 2 1 2 1 Z " fill="#00552A" transform="translate(85,34)"/>
<path d="M0 0 C2 1 2 1 2 1 Z " fill="#00552A" transform="translate(88,32)"/>
<path d="M0 0 C2 1 2 1 2 1 Z " fill="#003F1F" transform="translate(90,31)"/>
<path d="M0 0 C2 1 2 1 2 1 Z " fill="#00BF1F" transform="translate(92,30)"/>
<path d="M0 0 C2 1 2 1 2 1 Z " fill="#00942A" transform="translate(94,29)"/>
<path d="M0 0 C2 1 2 1 2 1 Z " fill="#007F7F" transform="translate(96,28)"/>
<path d="M0 0 C2 1 2 1 2 1 Z " fill="#006A6A" transform="translate(98,27)"/>
<path d="M0 0 C2 1 2 1 2 1 Z " fill="#003F1F" transform="translate(103,24)"/>
<path d="M0 0 C2 1 2 1 2 1 Z " fill="#00D42A" transform="translate(105,23)"/>
<path d="M0 0 C2 1 2 1 2 1 Z " fill="#00942A" transform="translate(107,22)"/>
<path d="M0 0 C2 1 2 1 2 1 Z " fill="#00BF7F" transform="translate(109,21)"/>
<path d="M0 0 C2 1 2 1 2 1 Z " fill="#00AA2A" transform="translate(111,20)"/>
<path d="M0 0 C2 1 2 1 2 1 Z " fill="#003F1F" transform="translate(116,17)"/>
<path d="M0 0 C2 1 2 1 2 1 Z " fill="#00BF1F" transform="translate(118,16)"/>
<path d="M0 0 C2 1 2 1 2 1 Z " fill="#00942A" transform="translate(120,15)"/>
<path d="M0 0 C2 1 2 1 2 1 Z " fill="#006A6A" transform="translate(122,14)"/>
<path d="M0 0 C2 1 2 1 2 1 Z " fill="#006A2A" transform="translate(124,13)"/>
<path d="M0 0 C2 1 2 1 2 1 Z " fill="#003F1F" transform="translate(129,10)"/>
<path d="M0 0 C2 1 2 1 2 1 Z " fill="#00BF1F" transform="translate(131,9)"/>
<path d="M0 0 C2 1 2 1 2 1 Z " fill="#00D42A" transform="translate(133,8)"/>
<path d="M0 0 C2 1 2 1 2 1 Z " fill="#00946A" transform="translate(135,7)"/>
<path d="M0 0 C2 1 2 1 2 1 Z " fill="#007F7F" transform="translate(137,6)"/>
<path d="M0 0 C2 1 2 1 2 1 Z " fill="#00AA2A" transform="translate(139,5)"/>
<path d="M0 0 C2 1 2 1 2 1 Z " fill="#003F1F" transform="translate(144,2)"/>
<path d="M0 0 C2 1 2 1 2 1 Z " fill="#00D42A" transform="translate(146,1)"/>
<path d="M0 0 C2 1 2 1 2 1 Z " fill="#00BF1F" transform="translate(148,0)"/>
<path d="" fill="#005555" transform="translate(0,0)"/>
<path d="" fill="#005555" transform="translate(0,0)"/>
<path d="" fill="#005555" transform="translate(0,0)"/>
<path d="" fill="#005555" transform="translate(0,0)"/>
<path d="" fill="#005555" transform="translate(0,0)"/>
<path d="" fill="#005555" transform="translate(0,0)"/>
<path d="" fill="#005555" transform="translate(0,0)"/>
<path d="" fill="#005555" transform="translate(0,0)"/>
<path d="" fill="#005555" transform="translate(0,0)"/>
<path d="" fill="#005555" transform="translate(0,0)"/>
<path d="" fill="#005555" transform="translate(0,0)"/>
<path d="" fill="#005555" transform="translate(0,0)"/>
<path d="" fill="#005555" transform="translate(0,0)"/>
<path d="" fill="#005555" transform="translate(0,0)"/>
<path d="" fill="#005555" transform="translate(0,0)"/>
<path d="" fill="#005555" transform="translate(0,0)"/>
<path d="" fill="#005555" transform="translate(0,0)"/>
<path d="" fill="#007F7F" transform="translate(0,0)"/>
<path d="" fill="#007F7F" transform="translate(0,0)"/>
<path d="" fill="#000000" transform="translate(0,0)"/>
<path d="" fill="#55AA55" transform="translate(0,0)"/>
<path d="" fill="#55AA55" transform="translate(0,0)"/>
<path d="" fill="#55AA55" transform="translate(0,0)"/>
<path d="" fill="#55AA55" transform="translate(0,0)"/>
<path d="" fill="#3F7F3F" transform="translate(0,0)"/>
<path d="" fill="#3FBF3F" transform="translate(0,0)"/>
<path d="" fill="#3FBF3F" transform="translate(0,0)"/>
<path d="" fill="#3FBF3F" transform="translate(0,0)"/>
<path d="" fill="#3FBF3F" transform="translate(0,0)"/>
<path d="" fill="#55AA55" transform="translate(0,0)"/>
<path d="" fill="#003F3F" transform="translate(0,0)"/>
<path d="" fill="#005555" transform="translate(0,0)"/>
<path d="" fill="#00AA55" transform="translate(0,0)"/>
<path d="" fill="#005555" transform="translate(0,0)"/>
<path d="" fill="#005555" transform="translate(0,0)"/>
<path d="" fill="#55AA55" transform="translate(0,0)"/>
<path d="" fill="#005555" transform="translate(0,0)"/>
<path d="" fill="#005555" transform="translate(0,0)"/>
<path d="" fill="#55AA55" transform="translate(0,0)"/>
<path d="" fill="#005555" transform="translate(0,0)"/>
<path d="" fill="#55AA55" transform="translate(0,0)"/>
<path d="" fill="#55AA55" transform="translate(0,0)"/>
<path d="" fill="#005555" transform="translate(0,0)"/>
<path d="" fill="#005555" transform="translate(0,0)"/>
<path d="" fill="#55AA55" transform="translate(0,0)"/>
<path d="" fill="#55AA55" transform="translate(0,0)"/>
<path d="" fill="#55AA55" transform="translate(0,0)"/>
<path d="" fill="#55AA55" transform="translate(0,0)"/>
<path d="" fill="#55AA55" transform="translate(0,0)"/>
<path d="" fill="#55AA55" transform="translate(0,0)"/>
<path d="" fill="#55AA55" transform="translate(0,0)"/>
<path d="" fill="#55AA55" transform="translate(0,0)"/>
<path d="" fill="#55AA55" transform="translate(0,0)"/>
<path d="" fill="#55AA55" transform="translate(0,0)"/>
<path d="" fill="#55AA55" transform="translate(0,0)"/>
<path d="" fill="#55AA55" transform="translate(0,0)"/>
<path d="" fill="#55AA55" transform="translate(0,0)"/>
<path d="" fill="#55AA55" transform="translate(0,0)"/>
<path d="" fill="#55AA55" transform="translate(0,0)"/>
<path d="" fill="#7FFF7F" transform="translate(0,0)"/>
<path d="" fill="#55AA55" transform="translate(0,0)"/>
<path d="" fill="#55AA55" transform="translate(0,0)"/>
<path d="" fill="#00AA55" transform="translate(0,0)"/>
<path d="" fill="#00AA55" transform="translate(0,0)"/>
<path d="" fill="#55AA55" transform="translate(0,0)"/>
<path d="" fill="#55AA55" transform="translate(0,0)"/>
<path d="" fill="#00AA55" transform="translate(0,0)"/>
<path d="" fill="#00AA55" transform="translate(0,0)"/>
<path d="" fill="#55AA55" transform="translate(0,0)"/>
<path d="" fill="#3FBF3F" transform="translate(0,0)"/>
<path d="" fill="#3FBF3F" transform="translate(0,0)"/>
<path d="" fill="#00AA55" transform="translate(0,0)"/>
<path d="" fill="#00AA55" transform="translate(0,0)"/>
<path d="" fill="#00AA55" transform="translate(0,0)"/>
<path d="" fill="#00FF00" transform="translate(0,0)"/>
<path d="" fill="#000000" transform="translate(0,0)"/>
<path d="" fill="#007F00" transform="translate(0,0)"/>
<path d="" fill="#55AA55" transform="translate(0,0)"/>
<path d="" fill="#55AA55" transform="translate(0,0)"/>
<path d="" fill="#55AA55" transform="translate(0,0)"/>
<path d="" fill="#55AA55" transform="translate(0,0)"/>
<path d="" fill="#55AA55" transform="translate(0,0)"/>
<path d="" fill="#55AA55" transform="translate(0,0)"/>
<path d="" fill="#55AA55" transform="translate(0,0)"/>
<path d="" fill="#55AA55" transform="translate(0,0)"/>
<path d="" fill="#00AA55" transform="translate(0,0)"/>
<path d="" fill="#007F3F" transform="translate(0,0)"/>
<path d="" fill="#007F3F" transform="translate(0,0)"/>
<path d="" fill="#00AA55" transform="translate(0,0)"/>
<path d="" fill="#005555" transform="translate(0,0)"/>
<path d="" fill="#007F3F" transform="translate(0,0)"/>
<path d="" fill="#00AA55" transform="translate(0,0)"/>
<path d="" fill="#00AA55" transform="translate(0,0)"/>
<path d="" fill="#00AA55" transform="translate(0,0)"/>
<path d="" fill="#00AA55" transform="translate(0,0)"/>
<path d="" fill="#00AA55" transform="translate(0,0)"/>
<path d="" fill="#00AA55" transform="translate(0,0)"/>
<path d="" fill="#00AA55" transform="translate(0,0)"/>
<path d="" fill="#00AA55" transform="translate(0,0)"/>
<path d="" fill="#00AA55" transform="translate(0,0)"/>
<path d="" fill="#00AA55" transform="translate(0,0)"/>
<path d="" fill="#00AA55" transform="translate(0,0)"/>
<path d="" fill="#00AA55" transform="translate(0,0)"/>
<path d="" fill="#00AA55" transform="translate(0,0)"/>
</svg>
