<?xml version="1.0" encoding="UTF-8"?>
<svg id="Layer_2" data-name="Layer 2" xmlns="http://www.w3.org/2000/svg" viewBox="0 0 250.78 65.03">
  <defs>
    <style>
      .cls-1 {
        fill: #016938;
      }

      .cls-2 {
        fill: #59b557;
      }

      .cls-3 {
        fill: #019047;
      }
    </style>
  </defs>
  <g id="Layer_1-2" data-name="Layer 1">
    <path class="cls-1" d="M37.25,30.45c0,6.97,0,13.94,.04,20.91,0,.72-.23,1.14-.86,1.47-7.75,4.06-15.49,8.13-23.23,12.2-.04,.02-.1-.01-.33-.05v-1.9c0-6.29,.01-12.59-.02-18.88,0-.8,.14-1.34,.92-1.74,4.51-2.32,9-4.68,13.49-7.03,3.04-1.64,6.08-3.28,9.12-4.93,.3-.16,.58-.21,.87-.03Z"/>
    <path class="cls-1" d="M.07,33.86C.05,26.79,.05,19.72,0,12.64c0-.74,.27-1.17,.87-1.48C7.81,7.55,14.74,3.93,21.68,.32c.22-.11,.46-.18,.85-.32V9.77c0,3.69-.01,7.39,.01,11.08,0,.78-.08,1.35-.9,1.76-3.88,1.96-7.73,3.99-11.59,6-3.28,1.84-6.57,3.66-9.99,5.25Z"/>
    <path class="cls-3" d="M70.78,51.68c-1.76,0-3.36-.03-4.96,.01-.74,.02-.96-.47-1.22-.99-1.91-3.85-3.84-7.68-5.71-11.54-.51-1.06-1.12-1.63-2.38-1.48-1.08,.12-2.19,.08-3.29,0-1.11-.08-1.44,.36-1.42,1.44,.05,3.64-.03,7.29,.05,10.93,.03,1.24-.21,1.71-1.59,1.67-3.44-.1-3.44-.02-3.44-3.46,0-9.32,.03-18.64-.03-27.95,0-1.36,.34-1.78,1.74-1.74,3.86,.1,7.73-.03,11.59,.05,7.1,.16,11.56,6.58,9.15,13.1-.86,2.32-2.49,3.97-4.76,4.87-1.09,.43-1.03,.85-.59,1.69,2.16,4.13,4.29,8.27,6.42,12.41,.14,.27,.25,.55,.44,.98Zm-18.87-23.41c0,1.41,.02,2.81,0,4.22-.01,.74,.28,1.01,1.02,.99,2.4-.05,4.81,.06,7.2-.12,3.08-.24,4.87-2.34,4.77-5.27-.1-2.82-2.01-4.76-5.02-4.9-2.29-.11-4.59-.02-6.89-.07-.82-.02-1.11,.28-1.09,1.08,.04,1.35,.01,2.71,.01,4.06Z"/>
    <path class="cls-3" d="M178.73,30.24c.54-.69-.18-1.78,.58-1.92,1.26-.22,2.59-.09,3.88,0,.41,.03,.33,.59,.33,.94-.09,8.01,.25,16.02-.18,24.03-.2,3.73-3.21,6.99-7.13,7.8-3.54,.73-6.94,.38-9.93-1.91-.77-.59-1.05-1.12-.1-1.77,.09-.06,.17-.13,.23-.21,1.04-1.28,1.82-1.82,3.67-.64,3.93,2.5,8.1,.22,8.68-4.38,.05-.36,.12-.73,.1-1.08-.04-.71,.34-1.7-.22-2.06-.59-.38-1.05,.61-1.61,.94-3.82,2.28-10.48,1.22-11.86-4.64-.86-3.64-.88-7.33-.21-10.98,1.18-6.37,8.28-8.74,13.23-4.52,.15,.13,.32,.24,.54,.4Zm.08,9.13c-.08-1.71-.13-3.43-.8-5.04-.73-1.75-2.24-2.26-3.93-2.24-1.65,.02-3.27,.36-3.95,2.19-1.25,3.39-1.23,6.82-.07,10.21,.6,1.75,1.93,2.34,4.34,2.27,2.05-.06,3.02-.74,3.71-2.48,.63-1.59,.6-3.25,.7-4.91Z"/>
    <path class="cls-3" d="M114.96,49.58c-1.87,1.59-3.84,2.36-6.12,2.35-3.88-.02-6.61-1.87-7.6-5.61-1.15-4.32-1.11-8.73,.01-13.07,1.58-6.1,8.99-6.45,12.33-4.05,.36,.26,.65,.85,1.15,.59,.47-.24,.28-.85,.28-1.3,.01-2.91,.03-5.83-.01-8.74-.01-.84,.18-1.16,1.11-1.18,3.58-.07,3.58-.11,3.58,3.43,0,9.16,0,18.32,0,27.48,0,2.57,.29,2.16-2.28,2.2-.1,0-.21-.01-.31,0-1.47,.2-2.49-.08-2.13-2.1Zm-9.83-10.61c-.14,1.26,.15,2.5,.2,3.74,.02,.56,.17,1.13,.31,1.68,.58,2.2,2.08,3.29,4.47,3.28,2.38,0,3.7-1,4.3-3.25,.73-2.76,.74-5.56,.25-8.35-.46-2.63-2.12-4.02-4.59-4.02-2.46,0-3.96,1.24-4.52,3.84-.22,1.01-.29,2.05-.42,3.08Z"/>
    <path class="cls-3" d="M87.58,41.27c-2.14,0-4.28,.03-6.42-.01-.89-.01-1.13,.23-1.02,1.18,.25,2.18,1.1,3.99,3.15,4.83,2.49,1.02,5.12,.94,7.24-.8,1.2-.99,1.72-.61,2.57,.19,1.87,1.73,1.89,1.71-.31,3.22-4.58,3.14-11.16,2.67-14.62-1.03-1.06-1.13-1.75-2.47-2.09-3.94-.98-4.29-1.14-8.56,1.15-12.53,2.04-3.55,5.91-5.14,10.17-4.38,3.73,.66,6.79,3.83,7.55,7.77,.28,1.44,.34,2.88,.36,4.34,.01,.88-.28,1.2-1.16,1.19-2.19-.04-4.38-.01-6.58-.01Zm-2.19-3.3c1.46,0,2.93-.01,4.39,0,.57,0,.83-.13,.82-.79-.06-3.01-2.31-5.38-5.17-5.41-2.8-.03-5.01,2.11-5.23,4.95-.07,.92,.07,1.33,1.12,1.26,1.35-.09,2.71-.02,4.07-.02Z"/>
    <path class="cls-3" d="M225.33,39.93c-.16,3.32-.25,6.67-2.89,9.23-2.9,2.81-6.33,3.39-10.09,2.26-3.8-1.14-5.77-3.93-6.32-7.69-.41-2.77-.41-5.57,.18-8.36,1.02-4.78,4.72-7.71,9.6-7.52,5.03,.2,8.62,3.38,9.22,8.2,.16,1.28,.41,2.57,.3,3.88Zm-4.69-.08c-.09-1.16-.14-2.3-.29-3.43-.34-2.58-2.15-4.24-4.69-4.35-2.44-.1-4.29,1.36-4.85,3.93-.55,2.52-.49,5.07-.08,7.59,.44,2.7,2.39,4.18,5.04,4.09,2.46-.08,4.25-1.79,4.58-4.42,.14-1.13,.19-2.28,.28-3.4Z"/>
    <path class="cls-3" d="M236.25,30.38c1.72-1.32,3.18-2.19,4.92-2.41,5.44-.71,9.32,2.39,9.52,7.89,.17,4.94,.03,9.89,.06,14.84,0,.72-.2,.96-.96,1-3.74,.2-3.74,.22-3.74-3.54,0-3.7,.05-7.39-.02-11.09-.04-2.03-.77-3.79-2.8-4.65-1.98-.84-4.15-.34-5.61,1.16-1.12,1.15-1.19,2.61-1.2,4.06-.02,4.22-.04,8.43,.01,12.65,.01,1.07-.28,1.42-1.4,1.41-3.37-.03-3.37,.02-3.37-3.33,0-6.2,.04-12.39-.03-18.59-.02-1.35,.42-1.77,1.68-1.59,.41,.06,.84,.06,1.25,0,1.39-.22,2.06,.27,1.68,2.18Z"/>
    <path class="cls-3" d="M143.91,30.07c.8-.01,1.09-.5,1.51-.76,2.88-1.77,5.87-2.03,8.89-.49,2.85,1.45,3.95,4,3.98,7.05,.04,4.89,0,9.78,.04,14.67,0,.85-.2,1.15-1.12,1.17-3.58,.07-3.58,.11-3.58-3.4,0-3.9,.04-7.8-.03-11.7-.04-2.57-1.52-4.14-4.06-4.53-2.17-.34-4.44,1.04-5.18,3.11-.27,.76-.2,1.54-.2,2.31-.02,4.26-.04,8.53,.01,12.79,.01,1.08-.28,1.42-1.39,1.42-3.32-.02-3.32,.03-3.32-3.34,0-6.24,.03-12.48-.03-18.72-.01-1.18,.32-1.63,1.49-1.44,.25,.04,.52,0,.78,0,1.26,.02,2.92-.49,2.22,1.86Z"/>
    <path class="cls-2" d="M37.25,30.45c-.3-.18-.58-.13-.87,.03-3.04,1.65-6.08,3.29-9.12,4.93,.15-.93-.71-.93-1.19-1.19-2.92-1.58-5.88-3.09-8.83-4.62-.31-.16-.78-.22-.77-.65,0-.42,.48-.5,.78-.66,2.67-1.39,5.33-2.8,8.02-4.13,1-.5,1.43-1.13,1.4-2.3-.08-3.11-.03-6.23-.03-9.42,1.05,.08,1.77,.72,2.57,1.14,2.21,1.15,4.39,2.35,6.6,3.51,1,.53,1.51,1.21,1.48,2.44-.09,3.63-.04,7.27-.05,10.91Z"/>
    <path class="cls-2" d="M.07,33.86c3.42-1.59,6.71-3.41,9.99-5.25-.19,.94,.69,.95,1.16,1.2,2.83,1.53,5.7,2.98,8.54,4.48,.37,.2,1.05,.2,.99,.81-.05,.53-.66,.58-1.06,.79-3.39,1.8-6.75,3.64-10.18,5.36-.88,.44-1.04,.97-1.03,1.81,.04,2.08-.02,4.16,.02,6.23,.02,.99-.44,1.07-1.14,.7-2.2-1.16-4.37-2.38-6.59-3.51-.73-.37-.71-.92-.71-1.55,0-3.69,.01-7.38,.02-11.06Z"/>
    <path class="cls-3" d="M191.56,39.25c0-1.92-.04-3.85,.02-5.77,.03-.95-.16-1.55-1.26-1.36-1.36,.24-1.41-.59-1.33-1.57,.07-.94-.45-2.25,1.37-1.98,.96,.14,1.27-.26,1.23-1.22-.07-1.61-.03-3.22,0-4.84,0-.37-.21-.98,.39-1.02,1.3-.08,2.61-.11,3.9,0,.58,.05,.42,.75,.43,1.18,.02,1.56,.06,3.12,0,4.68-.05,.98,.32,1.31,1.26,1.21,.52-.06,1.05,.05,1.56-.02,1.45-.21,1.81,.39,1.82,1.8,0,1.44-.4,1.86-1.83,1.81-2.78-.1-2.79-.02-2.79,2.78,0,3.22-.02,6.45,0,9.67,.02,2.39,.7,3.09,3.09,3.03,1.15-.03,1.67,.24,1.47,1.45-.07,.41-.06,.84,0,1.25,.15,1.13-.35,1.38-1.42,1.39-4.79,.02-7.08-1.58-7.81-5.6-.08-.46-.08-.93-.08-1.4,0-1.82,0-3.64,0-5.46Z"/>
    <path class="cls-3" d="M127.14,39.83c0-3.49,.02-6.97-.02-10.46,0-.85,.21-1.16,1.13-1.19,3.65-.11,3.65-.14,3.65,3.51,0,6.19-.02,12.39,.02,18.58,0,1.05-.24,1.45-1.39,1.44-3.4-.02-3.4,.03-3.4-3.29,0-2.86,0-5.72,0-8.59Z"/>
    <path class="cls-3" d="M131.96,20.9c0,2.64,0,2.65-2.61,2.63-2.69-.01-2.35,.32-2.36-2.45-.01-2.6,0-2.6,2.66-2.6q2.31,0,2.31,2.42Z"/>
  </g>
</svg>